<?xml version="1.0" encoding="UTF-8"?>
<!DOCTYPE svg PUBLIC "-//W3C//DTD SVG 1.1//EN" "http://www.w3.org/Graphics/SVG/1.1/DTD/svg11.dtd">
<!-- Creator: CorelDRAW 2026 -->
<svg xmlns="http://www.w3.org/2000/svg" xml:space="preserve" width="120mm" height="130mm" version="1.1" style="shape-rendering:geometricPrecision; text-rendering:geometricPrecision; image-rendering:optimizeQuality; fill-rule:evenodd; clip-rule:evenodd"
viewBox="0 0 4825.08 5227.16"
 xmlns:xlink="http://www.w3.org/1999/xlink"
 xmlns:xodm="http://www.corel.com/coreldraw/odm/2003">
 <defs>
  <style type="text/css">
   <![CDATA[
    .fil2 {fill:#FEFEFE}
    .fil1 {fill:#E32619}
    .fil0 {fill:#FFB800}
   ]]>
  </style>
 </defs>
 <rect class="fil0" x="-10221.95" y="-3042.87" width="8443.88" height="11942.06"/>
 <g id="Camada_x0020_1">
  <metadata id="CorelCorpID_0Corel-Layer"/>
  <g id="_2877461741744">
   <path class="fil1" d="M2426.93 3.46c-11.79,21.08 -51.1,81.88 -92.53,143.14 -17.04,25.19 -42.77,63.84 -57.18,85.88 -14.41,22.04 -47.07,71 -72.58,108.79 -25.44,37.68 -72.77,108.79 -104.81,157.45 -32.04,48.67 -75.02,112.92 -95.17,142.28l-36.75 53.53 27.71 132.55 27.71 132.55 -21.39 37.21c-11.74,20.44 -48.53,80.45 -81.62,133.12 -45.67,72.71 -62.93,105.94 -71.38,137.41 -6.06,22.59 -17.73,62.12 -25.6,86.74l-14.46 45.23 -19.22 -45.8c-20.2,-48.15 -19.74,-44.09 -34.52,-306.89 -2.26,-40.08 -5.85,-72.71 -8.01,-72.71 -2.16,-0 -12.28,18.6 -22.59,41.51 -10.25,22.79 -47.88,100.77 -83.43,172.91l-64.75 131.4 37.08 143.14c57.39,221.58 56.27,185.89 8.76,278.27 -37.99,73.86 -50.06,91.53 -50.06,73.28 0,-4.13 -7.63,-30.35 -17.17,-58.97 -9.47,-28.42 -30.13,-93.9 -46.08,-146 -15.94,-52.1 -30.53,-96.27 -32.53,-98.48 -1.98,-2.2 -30.29,57.83 -62.65,132.83l-59.03 136.84 29.71 70.43c41.56,98.48 69.12,168.64 96.27,245.05 12.82,36.07 25.64,71.02 28.36,77.29 5.4,12.47 -22.43,-8.54 -93.51,-70.59 -21.68,-18.93 -39.69,-33.67 -40.36,-33.04 -0.66,0.62 5.64,28.34 13.86,60.98 12.63,50.21 26.3,81.02 84.93,191.52 38.58,72.72 70.68,132.59 71.68,133.69 1.02,1.13 7.83,-3.35 15.66,-10.31 7.56,-6.72 28.91,-19.34 46.98,-27.77 29.9,-13.95 39.46,-15.46 97.88,-15.46 35.54,0 64.75,-0.65 64.75,-1.43 0,-0.76 -2.67,-6.01 -5.69,-11.17 -9.56,-16.36 -45.85,-105.92 -52.89,-130.54 -16.7,-58.4 -27.05,-143.81 -23.37,-192.95 21.2,-283.45 213.87,-496.42 620.46,-685.85l53.01 -24.7 -3.91 -34.93c-2.18,-19.47 -6.32,-46.33 -9.34,-60.69 -3.02,-14.36 -8.49,-43.52 -12.35,-65.85 -3.86,-22.33 -9.2,-51.49 -12.05,-65.85 -2.84,-14.31 -4.45,-26.27 -3.61,-26.91 0.83,-0.63 32.33,56.68 70.18,127.68 50.36,94.47 72.69,130.82 83.73,136.32 301.18,149.82 443.95,252.64 535,385.28 97.01,141.33 129.48,285.71 101.46,451.18 -9.69,57.25 -44.21,154.34 -64.52,181.5 -6,8.01 -11.13,15.94 -11.13,17.18 0,1.27 24.09,1.2 54.21,-0.16 66.26,-3 97.51,4.53 142.15,34.23 18.07,12.02 34.23,22.04 35.54,22.04 1.33,0 9.68,-14.89 18.63,-33.21 22.13,-45.3 24.81,-50.38 76.39,-144.86 34.08,-62.41 49.22,-97.52 61.01,-141.42 19.06,-71 19.26,-76.54 2.05,-58.4 -28.24,29.77 -118.93,104 -118.93,97.33 0,-3.77 6.5,-25.19 14.43,-47.52 18.69,-52.68 62.87,-195.92 67.81,-219.86 2.84,-13.74 1.6,-18.97 -4.54,-19.18 -4.52,-0.16 -2.71,-2.55 3.92,-5.15 8.31,-3.28 15.01,-14.89 20.48,-35.5 4.45,-16.75 14.41,-48.66 21.98,-70.42l13.86 -39.8 -35.24 -94.76c-19.38,-52.1 -41.61,-113.44 -49.4,-136.27 -7.81,-22.9 -15.77,-41.51 -17.77,-41.51 -1.99,-0 -17.95,52.1 -35.44,115.66 -30.25,109.93 -44.75,157.14 -60.13,195.81 -6.8,17.1 -7,16.89 -43.58,-45.52 -24.83,-42.37 -36.45,-68.27 -35.84,-79.88 0.49,-9.43 10.82,-95.33 22.89,-190.37l21.98 -173.2 -67.76 -105.93c-37.36,-58.4 -72.22,-114.27 -77.7,-124.53l-9.94 -18.61 -4.52 31.49c-2.49,17.35 -8.17,80.44 -12.65,140.56 -7.85,105.35 -8.9,110.73 -30.66,157.74 -25.71,55.54 -31.94,63.43 -39.77,50.39 -2.85,-4.75 -38.55,-48.38 -79.85,-97.62l-74.69 -89.03 8.43 -45.24c4.64,-24.89 17.78,-97.62 29.21,-161.74 11.44,-64.13 22.11,-118.58 23.73,-121.1 2.18,-3.38 -102.94,-127.05 -116.79,-137.41 -4.78,-3.58 -161.78,-180.36 -180.51,-203.26l-14.05 -17.18 4.21 176.92 4.22 176.92 -46.68 -56.68c-25.46,-30.92 -55.86,-67.35 -66.86,-80.16l-20.18 -23.48 -1.51 -377.32c-1.4,-349.83 -2.21,-376.06 -11.12,-360.14zm431.27 936.13c-1.99,3.16 -7.53,5.73 -12.35,5.73 -4.82,-0 -8.74,-2.57 -8.74,-5.73 0,-3.07 5.73,-5.73 12.35,-5.73 6.63,0 10.68,2.65 8.74,5.73zm-685.35 61.26c-12.81,12.35 -19.15,6.3 -10.19,-9.73 5.12,-9.16 8.85,-10.88 13.67,-6.3 4.68,4.44 3.65,9.16 -3.48,16.03zm255.11 4c-6.18,15.46 -20.32,15.99 -15.29,0.57 1.53,-4.68 4.31,-12.88 6.11,-18.03 2.21,-6.3 5.32,-7.54 9.34,-3.72 4.02,3.82 3.96,10.88 -0.16,21.18zm-4.06 23.92c12.05,4.4 12.51,19.6 0.6,19.6 -4.82,-0 -9.04,-1.07 -9.04,-2.29 0,-1.29 -1.59,-6.3 -3.65,-11.45 -4.1,-10.31 -2.38,-11.14 12.08,-5.86zm-52.56 51.09c-1.85,4.58 -6.55,8.59 -10.08,8.59 -4.73,0 -4.68,-3.44 0.19,-12.03 7.42,-13.09 15.43,-10.31 9.89,3.43zm-331.74 97.91c-2.03,5.15 -3.61,11.42 -3.61,14.31 0,3.09 -2.05,5.15 -5.12,5.15 -2.86,0 -3.93,-6.3 -2.41,-14.31 1.52,-8.02 5.36,-14.31 8.73,-14.31 3.39,0 4.44,4.01 2.41,9.16zm-88.85 39.79c1.82,9.16 0.8,9.56 -7.53,2.98 -11.44,-9.04 -13.02,-19.6 -2.41,-16.13 4.23,1.38 8.8,7.43 9.94,13.15zm982.75 303.74c0,4.58 -2.32,8.01 -5.42,8.01 -6.62,0 -13.12,-15 -8.43,-19.47 5.15,-4.9 13.86,2.29 13.86,11.45zm63.36 42.36c-14.66,20.04 -27.22,29.29 -27.22,20.04 0,-5.73 38.19,-48.44 40.96,-45.81 1.66,1.57 -4.53,13.17 -13.74,25.76zm-64.57 52.68c-1.41,4.01 -5.42,7.83 -9.64,9.16 -4.52,1.43 -5.84,-1.15 -3.53,-6.87 4.17,-10.31 16.74,-12.49 13.16,-2.29zm302.61 290.86c6.79,12.13 2.19,14.59 -11.67,6.23 -4.82,-2.91 -6.57,-7.78 -4.09,-11.38 6.05,-8.78 8.38,-8.01 15.76,5.15zm-1657.32 189.23c-5.46,3.08 -12.94,12.88 -17.25,22.62 -6.6,14.89 -18.29,23.3 -18.29,13.17 0,-10.31 26.44,-41.7 34.94,-41.48 9.64,0.24 9.67,0.58 0.6,5.7zm0.6 48.38c0,10.88 -7.97,14.71 -18.07,8.68 -6.26,-3.74 -6.14,-6.39 0.62,-13.26 9.4,-9.56 17.45,-7.45 17.45,4.58zm6.02 81.3c0,13.59 -14.87,5.16 -17.16,-9.73 -1.85,-12.02 -0.91,-12.81 7.52,-6.3 5.42,4.19 9.64,11.2 9.64,16.03z"/>
   <path class="fil2" d="M2304.03 1462.56c-230.1,112.63 -362.62,210.86 -446.95,331.29 -83.87,119.77 -113.83,237.04 -95.38,373.31 12.33,91.05 30.12,140.28 92.28,255.36 46.7,86.46 89.12,182.17 83.21,187.76 -4.48,4.25 -33.35,-52.07 -29.63,-57.79 2.24,-3.43 1.31,-4.31 -2.3,-2.19 -6.53,3.83 -42.25,-35.6 -39.51,-43.61 0.94,-2.75 -0.84,-3.21 -4.46,-1.15 -3.41,1.94 -13.85,-2.78 -24.09,-10.91 -48.77,-38.73 -131.31,-49.83 -195.77,-26.34 -39.16,14.26 -95.41,61.91 -114.3,96.8 -17.27,31.91 -18.54,74.43 -3.61,120.81 11.99,37.21 15.48,42.09 41.4,57.64 36.74,22.04 51.7,25.25 80.12,17.17 17.19,-4.89 27.69,-12.98 39.15,-30.15 17.56,-26.34 16.08,-33.31 -4.21,-19.78 -19.88,13.24 -34.33,11.26 -54.21,-7.45 -23.58,-22.2 -23.55,-47.77 0.11,-78.69 14.85,-19.41 23.38,-24.56 49.28,-29.77 27.71,-5.58 34.38,-4.91 57.83,5.79 33.96,15.49 52.88,40.01 62.26,80.66 18.5,80.21 -28.53,159.08 -119.48,200.4 -93.97,42.69 -194.89,17.29 -236.65,-59.55 -12.38,-22.79 -33.3,-103.06 -50.41,-193.53 -33.59,-177.49 -42.43,-205.01 -114.29,-355.56 -33.61,-70.43 -34.66,-71.82 -65.48,-87.03 -17.23,-8.5 -58.43,-29.9 -91.56,-47.54 -179.5,-95.62 -190.37,-100.38 -213.24,-93.52 -11.92,3.58 -97.58,33.05 -190.35,65.48 -92.76,32.43 -174.08,60.57 -180.71,62.52 -12.23,3.6 -19.77,19.36 -97.51,203.72 -17.86,42.36 -36.27,85.05 -40.73,94.47 -4.42,9.34 -14.18,30.63 -21.38,46.66l-13.25 29.49 30.72 48.38c16.72,26.34 30.72,49.95 30.72,51.82 0,1.88 23.14,39.79 51.2,83.88 28.06,44.09 51.2,83.03 51.2,86.17 0,3.23 6.02,6.9 13.86,8.42 17.06,3.33 192.75,30.01 221.06,33.58 18.37,2.31 26.5,-1.43 63.25,-29.12 23.49,-17.71 58.7,-45.47 79.51,-62.7l37.35 -30.92 -2.88 -38.36c-9.51,-126.54 -8.62,-121.63 -23.62,-130.54 -7.83,-4.66 -27.71,-13.44 -43.37,-19.18 -25.9,-9.49 -31.11,-9.73 -49.99,-2.29l-21.08 8.3 19.88 9.2c24.09,11.15 44.46,34.6 40.73,46.92 -1.56,5.14 -5.56,19.47 -9.1,32.63 -5.51,20.47 -10.84,25.79 -41.56,41.51l-35.24 18.03 -42.77 -18.61 -42.77 -18.6 -27.1 -64.99 -27.11 -64.99 15.48 -26.91c62.92,-109.36 89.42,-151.02 97.76,-153.74 5.27,-1.72 33.13,-11.97 61.44,-22.61l51.81 -19.47 48.19 16.28c63.25,21.37 127.85,58.92 160.14,93.08 33.79,35.74 66.76,101.35 79.14,157.45 5.57,25.26 12.64,88.17 15.77,140.28 11.4,190.09 35.75,257.57 122.95,340.67 76.77,73.16 171.96,104.17 276.17,89.95 52.41,-7.15 119.76,-34.2 154.81,-62.18 32.14,-25.65 25.17,-11.17 -14.45,30.06 -45.58,47.42 -108.44,83.78 -180.72,104.52 -41.28,11.85 -60.84,13.97 -127.1,13.82 -139.63,-0.33 -224.68,-29.68 -541.52,-186.91 -67.47,-33.48 -130.65,-59.41 -187.33,-76.89 -40.23,-12.4 -59.63,-14.85 -117.46,-14.85 -70.39,0 -109.63,5.67 -181.91,26.28 -32.53,9.28 -47.72,17.93 -78.31,44.6 -71.08,61.99 -137.34,165.36 -137.34,214.25 0,29.84 14.83,63.55 48.61,110.5 17.12,23.79 47.96,70.14 69.15,103.92 21.19,33.78 43.18,68.38 49.3,77.58 16.96,25.48 84.73,50.99 137.13,51.6 39.36,0.47 45.18,-1.14 87.34,-24.12 24.7,-13.46 58.29,-35.52 74.09,-48.67l28.91 -24.04 1.21 -40.66c1.09,-36.64 -0.57,-43.11 -16.87,-65.56l-18.07 -24.91 -3.16 28.05c-5.62,49.87 -29.97,71.31 -90.81,79.99 -52.12,7.43 -107.19,-30.75 -140.98,-97.74 -19.92,-39.51 -21.09,-44.59 -14.52,-63.55 29.15,-84.17 75.97,-127.02 161.52,-147.83 68.14,-16.58 114.45,-2.03 275.28,86.5 204.8,112.73 262.58,141.03 355.39,174.09 92.16,32.82 170.04,47.05 258.41,47.2 147.58,0.25 252.1,-42.93 358.06,-147.94l48.53 -48.09 -21.79 41.22c-24.82,46.95 -59.89,93.97 -91.46,122.61 -50.73,46.03 -153.6,101.83 -273.47,148.35l-40.96 15.89 0 142.28c0,78.44 1.76,142.28 3.92,142.28 2.21,-0 9.42,-5.73 16.59,-13.17 40.4,-41.97 155.98,-115.3 265.01,-168.13 172.88,-83.78 268.25,-144.51 353.59,-225.16 63.85,-60.35 115.36,-123.16 154.53,-188.43 30.45,-50.75 32.16,-45.81 7.91,22.9 -19.4,54.97 -48.9,112.98 -78.31,154.02 -10.26,14.31 -18.47,27.67 -18.47,30.06 0,2.36 136.73,4.29 304.19,4.29 167.46,-0 304.19,-1.68 304.19,-3.72 0,-2.09 -6.39,-11.74 -14.6,-22.04 -23.92,-30.01 -62.99,-108.21 -82.1,-164.33 -9.75,-28.63 -17.74,-53.65 -17.74,-55.54 0,-1.89 8.88,12.02 19.73,30.92 27.67,48.17 54.25,84.17 101.5,137.41 64.51,72.71 77.09,82.42 119.12,91.9 45.78,10.32 118.19,38.46 162.64,63.18 60.84,33.85 140.49,108.68 165.25,155.24 5.24,9.86 21.48,24.42 36.54,32.76 27.11,15.01 99.17,68.75 107.31,80.04 2.48,3.44 4.97,4.7 6.24,3.15 1.15,-1.41 21.46,-27.2 44.87,-56.97 23.41,-29.77 60.76,-71.26 82.52,-91.67 39.16,-36.71 45.81,-45.75 33.73,-45.75 -3.68,0 -13.85,-4.71 -22.89,-10.59 -9.06,-5.9 -34.94,-20.79 -58.43,-33.62 -251.18,-137.16 -305.27,-180.6 -376.29,-302.19l-20.06 -34.35 44.28 45.23c48.2,49.24 121.71,104.31 170.76,127.94 86.41,41.61 202.39,63.59 295.76,56.06 107.39,-8.66 215.04,-36.39 418.64,-107.85 161.43,-56.66 252.41,-78.36 327.68,-78.18 81.32,0.2 156.57,29.48 203.84,79.33 28.67,30.23 40.72,59.55 40.72,99.05 0,25.5 0.3,25.87 28.61,35.79 15.87,5.56 46.98,19.32 69.88,30.92 39.15,19.83 41.66,20.37 49.21,10.6 10.9,-14.14 48.93,-119.09 57.88,-159.75 6.57,-29.9 5.91,-34.93 -9.78,-74.43 -23.43,-58.97 -60.04,-120.85 -95.53,-161.46 -41.03,-46.95 -38.92,-45.23 -84.61,-68.71 -141.74,-72.83 -322.87,-92.1 -497.55,-52.96 -80.05,17.94 -134.93,37.57 -334.31,119.58 -122.28,50.29 -179.42,63.92 -268.05,63.92 -37.95,0 -81.52,-3.31 -96.38,-7.32 -72.28,-19.51 -161.28,-63.45 -153.33,-75.7 1.91,-2.95 -0.27,-3.83 -5.09,-2.06 -8.55,3.13 -66.84,-48.32 -78.08,-68.93 -5.99,-10.98 -5.65,-10.94 8.21,0.84 21.93,18.65 77.1,45.87 113.24,55.88 46.39,12.83 124.86,11.82 168.66,-2.18 118.37,-37.83 213.75,-141 248.41,-268.68 6.5,-23.94 16.88,-74.43 23.08,-112.22 22.83,-139.14 44.49,-202.75 93.76,-275.4 28.35,-41.8 88.89,-105.35 100.37,-105.35 2.61,0 15.06,-6 27.1,-13.07 53.58,-31.42 91.56,-41.25 158.42,-40.99 54.82,0.21 67.74,2.2 96.98,14.99 103.35,45.19 141.05,149.58 96.82,268.1 -30.13,80.73 -31.22,82.07 -77.54,96.04 -51.2,15.43 -52.08,15.43 -75.3,0.02 -37.95,-25.18 -39.91,-28.9 -32.83,-62.28 4.73,-22.33 25.99,-38.03 43.08,-31.83 19.27,7 22.89,-3.1 6.02,-16.84 -13.55,-11.05 -23.49,-13.74 -50.6,-13.74 -31.32,0 -34.94,1.43 -50.63,20.04 -25.11,29.77 -46.35,77.01 -46.35,103.06 0,26.72 17.59,52.67 79.14,116.8l40.12 41.8 44.58 -3.92c61.44,-5.4 160.16,-19.22 185.52,-25.97 17.55,-4.67 25.53,-12.77 47.59,-48.27 14.59,-23.48 29.21,-41.11 32.53,-39.22 3.51,2 4.14,0.57 1.5,-3.43 -2.63,-4 18.56,-45.23 50.6,-98.48l55.12 -91.61 -21.09 -49.81c-11.56,-27.31 -36.46,-84.74 -55.11,-127.11 -18.66,-42.37 -45.33,-103.43 -59.03,-135.12l-25 -57.83 -45.18 -15.75c-24.76,-8.62 -73.49,-26.09 -107.82,-38.64 -34.33,-12.55 -77.89,-27.56 -96.38,-33.21 -18.67,-5.71 -40.45,-12.99 -48.79,-16.32 -8.36,-3.34 -34.33,-12.63 -58.43,-20.9l-43.37 -14.89 -101.19 50.96c-55.42,27.91 -121.64,61.84 -146.38,75.01 -24.69,13.14 -51.46,26.96 -59.03,30.47 -14.7,6.82 -72.28,113.82 -98.21,182.52 -7.56,20.04 -16.02,38.08 -18.65,39.81 -5.34,3.52 -43.02,132.52 -74.31,254.48 -29.53,115.08 -36.15,132.37 -64.5,168.33 -74.3,94.24 -224.79,76.72 -304.92,-35.5 -55.19,-77.29 -27.91,-184.56 53.41,-209.97 47.27,-14.77 100.27,16.45 106.65,62.82 3.86,28.05 -6.21,49.45 -28.35,60.22 -16.26,7.91 -42.16,2.58 -42.16,-8.69 0,-3.27 -3.61,-5.72 -8.43,-5.72 -12.67,-0 -4.82,20.61 15.06,39.51 22.84,21.71 60.24,26.53 89.75,11.56 53.04,-26.89 67.58,-51.64 70.34,-119.78 1.72,-42.37 0.19,-50.89 -12.82,-71.57 -34.45,-54.77 -81.01,-89.02 -140.64,-103.46 -35.25,-8.54 -42.17,-8.55 -80.72,-0.22 -51.2,11.07 -86,30.06 -121.8,66.46 -15.2,15.46 -27.72,26.26 -27.89,24.04 -0.16,-2.23 -6.86,9.73 -15.06,26.91 -8.19,17.18 -16.1,29.65 -17.77,28.05 -5.34,-5.07 38.11,-105.35 70.7,-163.18 39.05,-69.28 48.98,-88.31 64.54,-123.67 40.37,-91.78 53.71,-232.46 31.05,-327.5 -20.2,-84.74 -39.41,-128.03 -86.9,-195.82 -71.12,-101.52 -191.42,-198.82 -350.44,-283.45 -89.15,-47.44 -188.95,-95.96 -196.97,-95.77 -4.31,0.1 -51.2,21.42 -104.21,47.36zm572.25 1330.4c11.39,79.01 -38.84,163.09 -113.25,189.56 -40.04,14.24 -66.86,15.39 -109.63,4.69 -28.31,-7.08 -69.27,-24.1 -69.27,-28.78 0,-2.1 133.72,-104.03 192.76,-146.92 15.06,-10.94 32.46,-24.4 39.15,-30.29 6.57,-5.78 19.58,-14.76 28.61,-19.75 9.03,-5 16.75,-11.77 16.97,-14.89 0.89,-12.75 10.53,17.75 14.66,46.37zm-895.12 -20.22c72.89,51.57 121.39,92.48 114.45,96.52 -4.42,2.57 -3.31,5.1 3.31,7.58 6.03,2.25 8.48,1.46 6.22,-2.01 -9.45,-14.56 10.94,-2.12 65.15,39.74l59.03 45.57 -16.87 8.29c-26.5,13.02 -79.77,26.64 -104.21,26.64 -81.68,0 -152.64,-58.4 -169.74,-139.7 -6.26,-29.77 -2.45,-106.5 5.3,-106.5 2,-0 18.67,10.66 37.35,23.86z"/>
   <path class="fil2" d="M3995.45 2342.67c-18.67,5.46 -43.97,29.66 -43.97,42.06 0,3.86 -7.53,9.51 -17.17,12.89 -13.25,4.64 -19.64,4.29 -28.01,-1.54 -33.47,-23.32 -95.84,5.83 -122.71,57.37 -12.54,24.05 -13.67,30.51 -7.92,45.23 8.94,22.9 0.17,38.36 -21.77,38.36 -32.55,0 -55.47,25.77 -67.21,75.58 -7.29,30.92 0.9,64.63 17.82,73.29 15.06,7.7 15.93,28.69 1.21,28.93 -29.31,0.48 -51.56,38.05 -52.03,87.86 -0.35,37.21 0.51,39.67 19.51,55.73 23.49,19.85 25.46,33.59 4.82,33.59 -47.37,0 -89.05,81.87 -64.71,127.11 14.79,27.48 8.03,40.74 -16.61,32.55 -40.28,-13.4 -103,36.16 -103,81.39 0,59.55 70.31,63.57 120.06,6.87 17.5,-19.94 18.94,-24.62 17.29,-56.11l-1.81 -34.35 24.09 -3.19c34.94,-4.62 49.51,-14.02 64.31,-41.47 17.6,-32.64 17.65,-72.4 0.13,-95.05 -17.72,-22.9 -16.84,-32.55 3.62,-39.35 49.39,-16.42 64.32,-121.75 21.08,-148.74 -18.65,-11.64 -17.47,-23.7 3.01,-30.69 31.93,-10.9 59.51,-69.21 52.79,-111.58 -2.18,-13.74 -6.46,-26.62 -9.42,-28.34 -9.04,-5.24 7.23,-25.48 20.48,-25.48 37.95,-0 112.04,-62.85 112.04,-95.05 0,-9.34 4.82,-15.48 15.06,-19.18 12.05,-4.35 17.95,-2.69 29.52,8.3 25.89,24.6 89.15,25.52 121.07,1.76 17.47,-13 33.13,-10.04 33.13,6.26 0,15.62 39.16,46.38 59.03,46.38 36.75,0 41.64,-31.42 9.64,-61.84 -19.42,-18.46 -23.19,-19.74 -47.88,-16.32 -25.9,3.59 -27.09,3.07 -35.24,-15.75 -4.71,-10.88 -15.34,-23.82 -24.1,-29.33 -19.16,-12.07 -59.63,-15.9 -86.14,-8.15zm61.74 36.91c11.44,8.37 11.44,8.81 -0,17.18 -6.32,4.62 -18.97,8.59 -27.41,8.59 -8.43,0 -21.08,-3.96 -27.41,-8.59 -11.44,-8.37 -11.45,-8.81 0,-17.18 6.33,-4.63 18.97,-8.59 27.41,-8.59 8.44,-0 21.09,3.96 27.41,8.59zm-178 55.54c0,7.93 -45.17,50.39 -53.61,50.39 -11.68,0 -14.12,-16.03 -4.44,-29.2 18.93,-25.77 58.05,-40.04 58.05,-21.19zm295.43 -4.01c12.5,14.31 0.93,17.74 -13.52,4.01 -10.84,-10.31 -11.5,-12.6 -3.61,-12.6 5.42,0 12.92,3.76 17.14,8.59zm-415.25 155.73c1.23,18.32 -1.93,33.14 -10.37,48.67 -15.53,28.57 -30.86,14.89 -23.73,-21.19 5.89,-29.77 32.5,-51.23 34.1,-27.49zm-31.91 193.53c2.06,24.05 -8.33,48.67 -20.53,48.67 -15.33,-0 -20.09,-42.94 -6.97,-62.98 12.02,-18.36 25.29,-11.45 27.5,14.31zm-36.1 175.78c1.38,16.6 -1.51,23.45 -14.85,35.22 -13.25,11.68 -18.25,13.27 -25,7.98 -10.22,-8.03 -5.75,-32.89 9.53,-52.92 15.02,-19.71 28.23,-15.46 30.33,9.73zm-98.93 139.71c2.44,6.11 -3.57,15.77 -18.03,29 -24.09,22.04 -27.62,23 -38.74,10.51 -6.41,-7.19 -4.03,-11.8 14.64,-28.42 24.7,-21.98 36.52,-25.09 42.12,-11.09z"/>
   <path class="fil2" d="M1039.91 2464.89c-5.53,8.01 -9.88,19.6 -9.88,26.34 0,18.89 15.22,47.74 32.53,61.66 15.66,12.6 20.86,24.22 10.84,24.22 -9.54,0 -19.28,29.2 -19.28,57.83 0,31.49 13.43,62.41 27.11,62.41 11.44,-0 11.44,20.92 0,25.1 -16.03,5.86 -33.13,39.59 -33.13,65.36 0,30.92 14.48,64.28 29.52,68.01 16.87,4.18 19.64,23.28 4.82,33.16 -38.97,26 -9.64,128.99 36.74,128.99 21.68,0 31.41,15.36 21.39,33.78 -15.56,28.63 -4.99,68.73 23.79,90.22 8.44,6.3 14.55,12.75 13.25,13.99 -1.32,1.25 13.55,3.06 32.83,4 32.53,1.58 36.26,0.49 48.54,-14.31 20,-24.12 14.41,-64.7 -12.54,-91.04 -21.68,-21.18 -53.77,-32.7 -76.06,-27.3 -17.64,4.27 -17.84,-2.47 -0.92,-29.38 10.69,-17 12.33,-26.34 9.35,-53.24 -3.11,-28.06 -6.62,-35.25 -25,-51.25 -12.05,-10.49 -26.65,-18.61 -33.43,-18.61 -6.63,0 -12.05,-3.86 -12.05,-8.59 0,-4.58 3.65,-8.59 7.83,-8.59 24.04,0 47.44,-67.56 34.51,-99.63 -7.62,-18.89 -27.88,-37.79 -40.54,-37.79 -13.18,0 -9.03,-19.73 5.42,-25.8 46.79,-19.65 32.53,-131.99 -15.66,-123.37 -10.84,1.94 -15.36,-13.39 -6.66,-22.59 15.16,-16.04 15.49,-46.95 0.77,-72.14 -16.73,-28.63 -39.01,-33.35 -54.11,-11.45zm36.21 43.8c2.83,14.31 2.01,18.1 -3.01,13.74 -3.82,-3.31 -8.69,-14.89 -10.84,-25.77 -2.84,-14.31 -2.01,-18.1 3.01,-13.74 3.82,3.31 8.69,14.89 10.84,25.77zm37.95 127.39c0.16,5.75 -2.76,15.75 -6.63,22.62 -6.76,12.02 -7.12,12.05 -15.12,1.43 -9.92,-13.17 -10.41,-44.15 -0.84,-53.25 5.79,-5.5 8.74,-4.29 14.76,6.01 4.02,6.87 7.67,17.69 7.83,23.19zm-3.55 127.68c6.95,17.18 3.79,46.82 -5.79,54.35 -12.7,9.97 -20.55,-1.1 -20.68,-29.15 -0.12,-28.06 18.24,-45.53 26.47,-25.19zm25.74 172.34c9.3,21.19 4.18,47.52 -9.25,47.52 -10.53,0 -24.7,-24.62 -24.7,-42.94 0,-32.64 20.41,-35.39 33.94,-4.58zm77.63 142.57c16.26,16.6 20.29,39.69 7.69,44.01 -22.29,7.64 -61.06,-37.5 -45.18,-52.6 10.54,-10.02 21.79,-7.44 37.49,8.59z"/>
   <path class="fil2" d="M3362.37 3167.99c-21.09,6.68 -35.81,13.84 -33.13,16.1 16.74,14.18 104.21,23.27 130.71,13.58 13.01,-4.76 12.05,-17.09 -2.41,-30.83 -15.64,-14.87 -45.78,-14.5 -95.17,1.15z"/>
   <path class="fil2" d="M3966.54 3506.99c-145.17,22.96 -267.26,68.63 -382.5,143.08 -60.84,39.3 -164.8,138.83 -203.96,195.25 -55.87,80.5 -100.2,183.22 -115.64,267.96 -9.81,53.82 -4.46,213.32 8.68,258.8 12.07,41.8 39.43,112.66 46.19,119.66 8.19,8.48 126.78,-50.39 162.32,-80.58 24.7,-20.98 29.47,-23.5 19.84,-10.45 -29.3,39.68 -104.18,98 -158.99,123.84 -119.87,56.49 -248.63,49.14 -363.83,-20.77 -32.4,-19.66 -93.16,-75.01 -142.06,-129.4l-24.19 -26.91 34.93 -9.59c69.27,-19.02 126.94,-52.76 185.2,-108.36 56.68,-54.08 79.96,-88.75 106.14,-158.03 12.43,-32.89 14.09,-47.52 14.36,-125.96 0.28,-81.88 -0.92,-91.85 -15.44,-128.83 -42.73,-108.79 -135.59,-198.16 -246.29,-237.04 -80.33,-28.21 -96.98,-29.2 -495.74,-29.2 -206,0 -375.67,2.06 -377.64,4.58 -19.66,25.19 -151.52,108.02 -162.07,101.81 -3.45,-2.03 -5.9,-0.75 -5.12,2.69 0.84,3.65 -23.19,18.45 -53.91,33.2l-55.42 26.63 -0.3 87.03 -0.3 87.03 -46.98 24.43c-160.83,83.64 -283.47,172.97 -351.62,256.12l-16.42 20.04 0 -314.62c0,-172.91 -0.14,-317.84 -0.3,-321.78 -0.23,-5.55 -38.25,-7.16 -168.96,-7.16l-168.66 0 0 197.53 0 197.53 -331.3 0 -331.3 0 -1.51 -196.1 -1.51 -196.1 -161.13 -1.43 -161.13 -1.43 0 609.77c0,335.52 1.35,609.78 3.01,609.78 3.11,0 87.94,-54.13 239.74,-152.96l82.52 -53.73 0 -154.31 0 -154.3 331.3 0 331.3 0 0 256.79 0 256.79 -22.29 16.76c-48.59,36.56 -111.44,51.68 -174.68,42.05 -59.03,-8.99 -84.51,-23.51 -125.34,-71.41 -38.43,-45.09 -44.02,-60.12 -44.73,-120.24 -0.39,-33.78 0.12,-34.91 31.22,-67.56l31.62 -33.21 33.73 9.45c28.91,8.09 34.73,12.06 40.7,27.77 10.46,27.48 8.67,40.93 -7.94,59.55 -18,20.18 -14.69,25.15 11.21,16.84 43.62,-14 58.34,-34.58 66.48,-92.98 3.76,-26.91 2.7,-30.25 -17.6,-55.54 -23.43,-29.2 -121.66,-96.19 -141.04,-96.19 -15.74,-0 -133.12,68.13 -172.28,99.98l-31.93 25.97 -12.35 64.41c-6.81,35.5 -15.46,89.47 -19.28,120.24 -5.97,48.09 -5.65,57.64 2.31,68.99 14.15,20.17 95.8,109.93 157.81,173.49l56.43 57.83 71.08 13.18c223.48,41.44 367.64,5.76 474.32,-117.39 56.44,-65.15 94.74,-146.57 130.63,-277.69 48.26,-176.35 79.51,-243.44 147.21,-316.05 34.81,-37.33 150.78,-115.99 234.51,-159.05l32.53 -16.73 2.11 327.5c1.86,289.14 3.31,331.39 12.43,360.71 23.78,76.52 79.75,166.61 159.32,256.51 40.33,45.56 48.41,51.62 108.04,81.02 98.19,48.42 122.24,55.81 194.56,59.8 71.22,3.93 142.15,-5.62 224.08,-30.16l46.39 -13.9 51.5 -73.86c28.34,-40.65 62.07,-95.23 74.99,-121.38l23.49 -47.52 -16.87 -43.23c-9.38,-24.05 -18.83,-48.31 -21.3,-54.68 -14.85,-38.36 -59.1,-132.34 -64.84,-137.7 -8.94,-8.36 -78.91,-32.75 -138.54,-48.31l-46.38 -12.1 -31.93 19.88c-62.04,38.62 -88.55,70.38 -88.55,106.09 0,46.37 26.34,84.62 64.45,93.57 19.88,4.66 22,-4.52 4.82,-20.86 -15.83,-15.05 -19.84,-41.8 -9.08,-60.69 5.85,-10.28 46.42,-28.63 63.28,-28.63 4.58,0 24.7,9.83 43.97,21.47l35.54 21.47 9.03 50.39 9.04 50.38 -18.97 29.77c-48.5,76.15 -48.5,76.15 -102.71,89.67 -34.33,8.56 -75.37,7.47 -106.01,-2.81 -33.68,-11.3 -92.05,-65.1 -108.52,-100.03 -26.88,-57.03 -29.42,-83.59 -29.42,-308.04l0 -212.99 155.71 0 155.71 0 38.87 41.22c146.84,155.74 190.98,204.41 194.23,214.14 1.99,5.95 15.22,23.19 29.23,38.08 14.01,14.89 33.37,36.26 42.77,47.23 11.01,12.85 25.6,22.2 40.66,26.05 21.08,5.4 23.49,7.83 23.49,23.76 0,12.53 6.02,23.15 20.48,36.12 22.89,20.54 42.25,26.53 62.65,19.38 19.05,-6.67 29.52,-1.11 33.49,17.78 7.95,37.79 89.39,67.56 115.89,42.37 14.6,-13.88 31.46,-10.88 38.64,6.87 7.34,18.13 28.82,30.31 60.75,34.41 32.53,4.19 71.11,-9.25 75.8,-26.4 3.75,-13.74 17.9,-14.99 32.02,-2.83 12.4,10.68 48.19,17.04 68.67,12.2 23.49,-5.55 51.81,-31.32 51.8,-47.16 0,-9.73 3.43,-13.74 11.75,-13.74 6.63,0 13.39,2.5 15.53,5.73 5.37,8.13 37.18,6.71 55.85,-2.5 23.49,-11.59 38,-28.6 42.79,-50.17 4,-17.99 5.4,-18.81 29.5,-17.11 50.6,3.57 90.09,-35.89 83.14,-83.09l-3.63 -24.62 23.49 1c31.17,1.32 50.56,-11.3 66.61,-43.37 10.6,-21.18 11.9,-29.22 7.31,-45.23 -7.06,-24.62 -2.61,-30.89 21.85,-30.79 42.17,0.18 83.69,-61.39 68.45,-101.47 -9.14,-24.05 -8.97,-26.34 2.03,-26.34 17.77,0 45.07,-17.75 54.61,-35.5 7.18,-13.36 8.95,-26.62 6.53,-48.95 -3.16,-29.2 -2.58,-30.9 12.35,-36.36 8.44,-3.08 20.54,-11.01 26.22,-17.18 12.15,-13.17 20.52,-42.01 14.79,-50.96 -2.07,-3.24 2.36,-5.73 10.19,-5.73 22.89,0 53.05,-20.67 56.82,-38.93 3.31,-16.04 4.32,-16.51 30.23,-13.74 21.08,2.25 30.6,0.18 44.58,-9.73 9.64,-6.84 17.77,-10.24 17.77,-7.44 0,5.47 22.89,15.06 48.79,20.44 50,10.39 66.88,77.66 29.07,115.83 -16.86,17.02 -11.6,22.18 14.3,14.06 41.97,-13.17 74.67,-68.46 67.59,-114.26 -8.37,-54.11 -25.42,-78.03 -88.67,-124.4 -33.02,-24.21 -37.95,-25.93 -89.75,-31.35 -58.21,-6.09 -99.39,-2.1 -172.28,16.71 -30.95,7.99 -45.17,16.4 -83.12,49.15 -25.3,21.83 -62.22,57.56 -82.52,79.87l-36.74 40.36 3.31 -53.82c6.98,-113.37 63.44,-209.3 167.15,-284.02 36.34,-26.18 127.1,-64.27 182.52,-76.6 65.06,-14.48 186.77,-16.08 250.58,-3.29 82.52,16.53 182.57,62.38 233.11,106.84 18.29,16.08 -3.61,27.69 175.89,-93.2 51.81,-34.89 104.92,-70.81 117.46,-79.44l22.89 -15.75 -43.98 -33.97c-137.69,-106.38 -257.81,-161.3 -430.69,-196.91 -75.29,-15.51 -267.37,-20.22 -342.14,-8.4zm-1222.19 314.65c37.95,13.18 71.42,40.51 83.68,68.34 5.05,11.45 9.08,36.64 9.08,56.68 0,57.25 -31.3,102.03 -90.35,129.28 -45.05,20.78 -99.39,24.17 -387.32,24.17l-275.27 0 0 -146.29 0 -146.29 314.73 1.72c289.13,1.58 317.23,2.59 345.45,12.39zm1270.38 329.23c10.84,2.18 15.3,5.35 11.14,7.92 -3.73,2.32 -14.15,1.73 -22.59,-1.26 -26.5,-9.41 -39.78,-6.71 -58.23,11.86 -9.67,9.73 -18.63,14.7 -20.68,11.45 -5.93,-9.4 -28.31,-7.08 -49.39,5.11 -16.13,9.33 -19.88,15.22 -19.88,31.25 0,18.89 -0.78,19.62 -18.07,16.6 -15.35,-2.67 -21.38,0 -40.06,17.75 -20.49,19.47 -21.74,22.61 -18.38,46.09 3.45,24.04 2.85,25.35 -13.25,28.65 -41.56,8.52 -69.35,68.03 -45.71,97.88 13.15,16.6 10.98,24.04 -6.1,20.92 -21.57,-3.94 -46.38,7.71 -61.54,28.89 -16.8,23.47 -24.19,63.84 -13.85,75.58 12.36,14.02 4.31,21.16 -25.21,22.34 -24.09,0.96 -31.05,3.98 -46.68,20.31 -10.2,10.66 -19.84,28.34 -21.68,39.79 -1.84,11.45 -4.25,24.94 -5.42,30.34 -1.11,5.15 -0.27,9.2 1.81,8.59 2.35,-0.69 4.56,0.68 5.52,3.43 4.06,11.58 -0.4,13.86 -16.06,8.23 -36.62,-13.17 -84.93,23.84 -84.93,65.06 0,16.04 -2.55,22.33 -9.03,22.33 -10.84,0 -12.13,-9.41 -1.81,-13.26 7.97,-2.97 -31.32,0.66 -54.21,5.01 -7.19,1.37 -22.89,10.64 -34.33,20.27 -16.63,14 -21.09,22.05 -21.09,38.07l0 20.33 -15.66 -13.74c-12.47,-10.94 -21.69,-13.65 -45.18,-13.32 -34.33,0.49 -57.35,13.42 -71.59,40.23l-9.13 17.17 -26.2 -18.89c-21.08,-15.19 -31.62,-18.89 -53.91,-18.89 -29.51,0 -64.73,15.58 -71.17,31.49 -5.52,13.65 -20.39,10.31 -20.39,-4.58 0,-7.05 -7.83,-20.3 -16.87,-28.52 -31.32,-28.51 -73.29,-35.1 -99.39,-15.61 -18.67,13.95 -22.29,13.95 -22.29,0.04 0,-35.56 -31.93,-60.36 -77.1,-59.88 -29.52,0.31 -32.2,-0.77 -35.54,-14.27 -1.98,-8.01 -7.96,-19.63 -13.25,-25.76 -8.26,-9.57 -6.63,-9.32 11.44,1.78 51.6,31.68 136.14,63.45 210.83,79.2 62.04,13.09 203.56,13.14 265.04,0.09 45.18,-9.59 166.75,-62.89 193.36,-84.78 7.23,-5.95 15.99,-9.21 19.28,-7.18 3.61,2.23 4.54,1.43 2.31,-2.01 -5.04,-7.76 30.82,-37.48 39.26,-32.52 3.61,2.13 5.12,1.55 3.31,-1.26 -1.81,-2.81 14.6,-24.62 36.19,-48.09 48.8,-53.04 110.92,-140.85 166.1,-234.75 81.75,-139.13 151.14,-206.98 234.72,-229.47 39.76,-10.7 56.45,-11.88 85.54,-6.04zm-30.12 23.67c-1.93,3.06 -7.83,5.73 -12.65,5.73 -4.82,0 -7.35,-2.67 -5.42,-5.73 1.93,-3.05 7.83,-5.72 12.65,-5.72 4.82,-0 7.35,2.67 5.42,5.72zm-75.6 27.2c-0.16,2.28 -7.23,9.13 -15.06,14.6 -14.46,10.1 -14.76,10.07 -14.76,-1.14 0,-9.5 7.23,-14.27 25.9,-17.11 2.53,-0.39 4.1,1.07 3.92,3.65zm-71.98 63.27c0,7.44 -18.52,29.77 -24.7,29.77 -7.91,-0 -6.63,-19.47 1.81,-27.49 7.83,-7.44 22.89,-8.95 22.89,-2.29zm-56.35 101.34c4.26,10.71 -13.53,37.22 -24.97,37.22 -11.63,-0 -11.37,-17.18 0.5,-33.21 11.03,-14.89 19.59,-16.29 24.47,-4.01zm-64.13 121.95c0,14.31 -22.61,46.95 -32.53,46.95 -18.58,0 -16.11,-26.91 4.51,-49.24 9.83,-10.65 28.02,-9.16 28.02,2.29zm-92.58 124.25c4.62,11.48 -20.66,42.94 -34.52,42.94 -15.36,0 -14.77,-17.18 1.25,-36.65 13.68,-16.6 28.02,-19.32 33.26,-6.3zm-898.3 105.92c5.97,6.3 8.13,11.45 4.82,11.45 -3.31,0 -10.9,-5.15 -16.87,-11.45 -5.96,-6.3 -8.13,-11.45 -4.82,-11.45 3.31,0 10.9,5.15 16.86,11.45zm801.74 2.86c5.55,13.71 -13.86,37.22 -30.72,37.22 -20.21,0 -19.88,-18.58 0.6,-33.98 18.67,-14.04 25.45,-14.77 30.12,-3.24zm-699.94 72.26c8.43,6.41 14.11,14.29 12.3,17.06 -4.95,7.6 -38.81,-10.88 -38.81,-21.19 0,-11.29 7.83,-10.08 26.51,4.13zm585.89 8.47c4.71,11.72 -14.86,30.31 -34.13,32.42 -19.88,2.17 -22.85,-13.87 -5.42,-29.27 16.26,-14.37 34.46,-15.82 39.55,-3.14zm-450.96 45.71c16.86,11.23 17.2,25.28 0.6,25.28 -13.85,0 -36.58,-10.33 -42.83,-19.47 -11.21,-16.38 19.94,-20.67 42.24,-5.82zm326.48 16.12c0,19.47 -41.22,32.39 -56.62,17.75 -9.67,-9.19 -9.69,-10.31 -0.45,-20.04 17.28,-18.2 57.08,-16.6 57.08,2.29zm-162.03 14.45c12.05,9.34 12.81,11.94 5.83,19.91 -15.48,17.68 -60.65,7.44 -60.65,-13.74 0,-19.25 33.13,-22.98 54.82,-6.16z"/>
   <path class="fil2" d="M2742.24 3537c6.02,1.47 15.06,1.47 21.08,0 5.72,-1.4 0.9,-2.58 -10.54,-2.58 -11.45,0 -16.26,1.18 -10.54,2.58z"/>
   <path class="fil2" d="M1619.96 4275.31c-12.3,12.48 -19.19,14.56 -42.68,12.88 -15.66,-1.12 -26.94,-0.36 -25.6,1.72 1.3,2.01 -4.22,5.28 -12.05,7.11 -32.73,7.67 -75.89,69.9 -75.89,109.4 0,13.17 21.53,48.67 29.51,48.67 2.85,0 4,5.15 2.41,10.88 -2.11,7.62 -10.24,11.78 -27.1,13.88 -50.53,6.28 -90.96,54.83 -90.96,109.22 0,33.78 7.91,52.18 30.12,70.08 21.17,17.07 14.46,36.41 -12.65,36.41 -59.03,0 -112.46,91.04 -86.36,147.15 3.99,8.59 10.95,18.16 14.98,20.61 3.96,2.41 7.53,9.73 7.53,15.46 0,9.62 -3.61,10.55 -31.32,8.03 -40.96,-3.74 -66.79,8.93 -93.38,45.79 -20.66,28.63 -25.94,58.35 -12.63,71 6.15,5.85 6.02,8.49 -0.6,12.31 -5.42,3.13 -11.44,2 -16.87,-3.15 -12.16,-11.57 -54.21,-9.98 -84.93,3.2 -18.67,8.01 -28.34,16.7 -34.65,31.15 -8.75,20.04 -20.76,31.96 -20.76,20.62 0,-3.44 -9.03,-9.86 -19.88,-14.14 -22.57,-8.9 -53.01,-4.45 -78.91,11.54 -14.46,8.92 -17.4,9.1 -26.51,1.56 -11.44,-9.47 -116.88,-20.72 -106.62,-11.37 10.7,9.74 59.63,34 72.28,35.85 6.65,0.97 19.88,-0.18 29.52,-2.55 13.86,-3.41 20.33,-1.7 31.32,8.24 22.18,20.07 56.62,21.22 89.15,3 23.49,-13.16 28.24,-14.22 31.21,-6.94 5.11,12.56 39.87,20.64 65.17,15.15 40.36,-8.75 69.87,-36.44 69.87,-65.54 0,-16.47 13.25,-21.07 36.74,-12.76 24.58,8.7 67.18,-8.99 91.99,-38.19 25.29,-29.77 30.16,-44.35 22.96,-68.71 -7.11,-24.05 0.35,-38.36 19.98,-38.36 35.96,0 80.76,-31.49 96.92,-68.13 16.17,-36.65 9.22,-90.37 -13.8,-106.62 -14.6,-10.31 -4.22,-35.42 16.26,-39.33 23.57,-4.51 64.13,-40.13 71.75,-63.04 15.82,-47.52 11.58,-85.04 -12.42,-109.94 -15.34,-15.9 -9.34,-30.92 12.35,-30.92 37.59,0 93.13,-55.54 100.21,-100.2 2.36,-14.89 1.04,-33.63 -3.23,-45.81 -6.02,-17.18 -5.65,-22.9 2.27,-34.35 19,-27.48 8.97,-34.9 -14.7,-10.88zm-36.01 71c8.63,15.22 -8.78,50.86 -30.46,62.38 -38.55,20.48 -50.07,-21.09 -15.06,-54.37 22.89,-21.76 36.38,-24.13 45.52,-8.02zm-90.1 211.27c0,46.38 -49.08,82.29 -62.6,45.81 -7.64,-20.61 -0.11,-44.03 20.43,-63.55 14.46,-13.74 19.6,-15.52 29.82,-10.31 9.1,4.64 12.35,12.02 12.35,28.05zm-73.4 210.7c3.56,34.35 -29.9,72.29 -55.5,62.95 -12.9,-4.7 -12.26,-40.05 1.08,-60.09 13.72,-20.62 19.82,-24.29 37.47,-22.62 12.24,1.16 15.41,4.87 16.95,19.75zm-120.49 174.63c2.87,14.27 -30.79,44.66 -49.46,44.66 -23.03,0 -21.09,-23.22 3.61,-43.07 20.48,-16.45 42.71,-17.23 45.85,-1.59zm-151.62 103.06c6.25,9.63 -20.12,27.48 -40.61,27.48 -22.28,-0 -22.62,-14.07 -0.6,-25.39 19.88,-10.22 35.42,-11.01 41.21,-2.09zm-145.42 33.2c-1.96,3.11 -11.75,5.73 -21.38,5.73 -9.64,0 -17.77,-2.62 -17.77,-5.73 0,-3.22 9.34,-5.72 21.39,-5.72 12.65,-0 19.91,2.34 17.77,5.72z"/>
   <path class="fil2" d="M4523.67 4415.59c-21.79,23.95 -86.69,69.49 -132.47,92.96 -163.84,83.99 -396.42,80.39 -545.74,-8.46 -39.15,-23.3 -50.6,-26.61 -50.6,-14.65 0,4.06 -9.45,26.05 -20.78,48.38 -15.11,29.77 -27.76,45.78 -46.38,58.68 -13.86,9.61 -28.5,16.7 -31.93,15.46 -3.47,-1.26 -6.49,5.73 -6.69,15.46 -0.56,27.33 -18.79,58.4 -54.08,92.18l-31.7 30.34 15.66 10.98c23.97,16.8 118.66,61.12 166.86,78.09 105.58,37.2 200.59,51.88 337.32,52.14 87.95,0.17 120.94,-2.18 174.69,-12.46 154.81,-29.61 292.4,-89.03 409.6,-176.92 58.43,-43.81 121.37,-98.01 117.46,-101.15 -1.65,-1.33 -40.96,-29.08 -87.34,-61.67 -46.38,-32.59 -109.13,-76.78 -139.45,-98.19 -30.12,-21.28 -56.07,-38.68 -57.22,-38.36 -1.16,0.32 -8.88,8.01 -17.22,17.18z"/>
  </g>
 </g>
</svg>
