<?xml version="1.0" encoding="UTF-8"?>
<!DOCTYPE svg PUBLIC "-//W3C//DTD SVG 1.1//EN" "http://www.w3.org/Graphics/SVG/1.1/DTD/svg11.dtd">
<!-- Creator: CorelDRAW 2026 -->
<svg xmlns="http://www.w3.org/2000/svg" xml:space="preserve" width="120mm" height="130mm" version="1.1" style="shape-rendering:geometricPrecision; text-rendering:geometricPrecision; image-rendering:optimizeQuality; fill-rule:evenodd; clip-rule:evenodd"
viewBox="0 0 2806.8 3040.69"
 xmlns:xlink="http://www.w3.org/1999/xlink"
 xmlns:xodm="http://www.corel.com/coreldraw/odm/2003">
 <defs>
  <style type="text/css">
   <![CDATA[
    .fil3 {fill:black}
    .fil1 {fill:#E32619}
    .fil0 {fill:#FFB800}
    .fil2 {fill:black}
   ]]>
  </style>
 </defs>
 <rect class="fil0" x="3544.05" y="-1803.69" width="4911.9" height="6946.83"/>
 <g id="Camada_x0020_1">
  <metadata id="CorelCorpID_0Corel-Layer"/>
  <g id="_2877456318896">
   <path class="fil1" d="M1411.77 2.01c-6.86,12.26 -29.73,47.63 -53.83,83.27 -9.91,14.65 -24.88,37.14 -33.26,49.96 -8.38,12.82 -27.38,41.3 -42.22,63.28 -14.79,21.92 -42.33,63.28 -60.97,91.59 -18.64,28.31 -43.64,65.69 -55.36,82.77l-21.37 31.14 16.12 77.1 16.12 77.11 -12.44 21.65c-6.83,11.89 -28.23,46.8 -47.48,77.44 -26.57,42.3 -36.61,61.63 -41.52,79.94 -3.53,13.14 -10.31,36.14 -14.89,50.46l-8.41 26.31 -11.18 -26.65c-11.75,-28.01 -11.49,-25.64 -20.08,-178.52 -1.31,-23.31 -3.4,-42.3 -4.65,-42.3 -1.26,0 -7.15,10.82 -13.14,24.15 -5.96,13.26 -27.85,58.62 -48.53,100.58l-37.67 76.44 21.57 83.27c33.39,128.89 32.73,108.13 5.1,161.87 -22.1,42.97 -29.12,53.25 -29.12,42.63 0,-2.41 -4.44,-17.65 -9.99,-34.31 -5.51,-16.53 -17.53,-54.62 -26.8,-84.93 -9.28,-30.31 -17.76,-56 -18.92,-57.29 -1.15,-1.28 -17.62,33.64 -36.44,77.27l-34.34 79.6 17.29 40.97c24.17,57.29 40.21,98.1 56,142.55 7.46,20.98 14.91,41.32 16.49,44.96 3.14,7.25 -13.05,-4.97 -54.39,-41.07 -12.61,-11.01 -23.09,-19.58 -23.48,-19.22 -0.38,0.36 3.28,16.49 8.06,35.47 7.35,29.21 15.3,47.13 49.4,111.41 22.45,42.3 41.12,77.13 41.7,77.77 0.59,0.66 4.56,-1.95 9.11,-5.99 4.4,-3.91 16.82,-11.25 27.33,-16.15 17.39,-8.12 22.95,-8.99 56.94,-8.99 20.67,0 37.67,-0.38 37.67,-0.83 0,-0.44 -1.56,-3.5 -3.31,-6.5 -5.56,-9.51 -26.67,-61.62 -30.76,-75.94 -9.72,-33.97 -15.74,-83.65 -13.6,-112.24 12.33,-164.88 124.41,-288.77 360.93,-398.97l30.84 -14.37 -2.28 -20.31c-1.27,-11.33 -3.67,-26.95 -5.43,-35.3 -1.76,-8.35 -4.94,-25.31 -7.18,-38.3 -2.25,-12.99 -5.35,-29.95 -7.01,-38.3 -1.66,-8.33 -2.59,-15.28 -2.1,-15.65 0.48,-0.37 18.81,32.98 40.82,74.27 29.29,54.95 42.28,76.1 48.7,79.3 175.2,87.15 258.25,146.96 311.21,224.12 56.43,82.21 75.32,166.2 59.02,262.45 -5.64,33.3 -25.71,89.78 -37.53,105.58 -3.49,4.66 -6.48,9.27 -6.48,9.99 0,0.74 14.02,0.7 31.54,-0.1 38.54,-1.75 56.72,2.63 82.69,19.91 10.51,7 19.91,12.82 20.67,12.82 0.77,0 5.63,-8.66 10.84,-19.32 12.87,-26.36 14.43,-29.31 44.44,-84.26 19.82,-36.31 28.63,-56.73 35.49,-82.27 11.09,-41.3 11.2,-44.52 1.2,-33.97 -16.43,17.32 -69.19,60.49 -69.19,56.62 0,-2.2 3.78,-14.65 8.39,-27.64 10.87,-30.64 36.57,-113.97 39.45,-127.9 1.65,-7.99 0.93,-11.04 -2.64,-11.16 -2.63,-0.09 -1.58,-1.48 2.28,-3 4.83,-1.91 8.73,-8.66 11.91,-20.65 2.59,-9.74 8.38,-28.31 12.79,-40.97l8.06 -23.15 -20.5 -55.12c-11.27,-30.31 -24.21,-65.99 -28.73,-79.27 -4.54,-13.32 -9.18,-24.15 -10.34,-24.15 -1.16,-0 -10.44,30.31 -20.61,67.28 -17.6,63.95 -26.03,91.41 -34.98,113.91 -3.96,9.94 -4.07,9.82 -25.35,-26.48 -14.44,-24.65 -21.2,-39.71 -20.85,-46.46 0.29,-5.48 6.3,-55.46 13.32,-110.74l12.79 -100.75 -39.42 -61.62c-21.74,-33.97 -42.02,-66.47 -45.2,-72.44l-5.78 -10.82 -2.63 18.32c-1.45,10.1 -4.75,46.79 -7.36,81.77 -4.57,61.28 -5.18,64.41 -17.83,91.76 -14.96,32.3 -18.58,36.89 -23.14,29.31 -1.66,-2.77 -22.42,-28.15 -46.45,-56.79l-43.45 -51.79 4.9 -26.31c2.7,-14.48 10.34,-56.79 17,-94.09 6.65,-37.3 12.86,-68.98 13.8,-70.44 1.27,-1.97 -59.88,-73.91 -67.94,-79.94 -2.79,-2.08 -94.11,-104.92 -105.01,-118.24l-8.17 -9.99 2.45 102.91 2.45 102.92 -27.16 -32.97c-14.81,-17.99 -32.49,-39.18 -38.89,-46.63l-11.74 -13.66 -0.87 -219.49c-0.81,-203.5 -1.28,-218.76 -6.47,-209.49zm250.87 544.56c-1.16,1.84 -4.38,3.33 -7.18,3.33 -2.8,-0 -5.08,-1.49 -5.08,-3.33 0,-1.79 3.33,-3.33 7.18,-3.33 3.85,0 6.21,1.54 5.08,3.33zm-398.67 35.64c-7.45,7.18 -11.14,3.66 -5.93,-5.66 2.98,-5.33 5.15,-6.33 7.95,-3.66 2.72,2.58 2.13,5.33 -2.02,9.33zm148.4 2.33c-3.6,8.99 -11.82,9.3 -8.9,0.33 0.89,-2.72 2.51,-7.49 3.56,-10.49 1.29,-3.67 3.09,-4.39 5.43,-2.17 2.33,2.22 2.3,6.33 -0.09,12.32zm-2.36 13.91c7.01,2.56 7.28,11.4 0.35,11.4 -2.8,-0 -5.26,-0.62 -5.26,-1.33 0,-0.75 -0.93,-3.66 -2.12,-6.66 -2.39,-5.99 -1.38,-6.48 7.03,-3.41zm-30.57 29.72c-1.07,2.66 -3.81,5 -5.87,5 -2.75,0 -2.72,-2 0.11,-6.99 4.32,-7.61 8.98,-5.99 5.76,2zm-192.98 56.95c-1.18,3 -2.1,6.64 -2.1,8.33 0,1.8 -1.19,3 -2.98,3 -1.67,0 -2.29,-3.67 -1.4,-8.33 0.88,-4.67 3.12,-8.33 5.08,-8.33 1.97,0 2.58,2.33 1.4,5.33zm-51.68 23.15c1.06,5.33 0.47,5.56 -4.38,1.74 -6.66,-5.26 -7.58,-11.4 -1.4,-9.38 2.46,0.8 5.12,4.32 5.78,7.65zm571.67 176.69c0,2.66 -1.35,4.66 -3.15,4.66 -3.85,0 -7.64,-8.73 -4.91,-11.32 3,-2.85 8.06,1.33 8.06,6.66zm36.86 24.65c-8.53,11.66 -15.83,17.04 -15.83,11.66 0,-3.33 22.22,-28.17 23.83,-26.64 0.96,0.91 -2.63,7.66 -7.99,14.99zm-37.56 30.64c-0.82,2.33 -3.16,4.55 -5.61,5.33 -2.63,0.83 -3.4,-0.67 -2.05,-4 2.42,-5.99 9.74,-7.27 7.66,-1.33zm176.03 169.19c3.95,7.06 1.27,8.49 -6.79,3.63 -2.8,-1.69 -3.82,-4.53 -2.38,-6.62 3.52,-5.11 4.88,-4.66 9.17,3zm-964.08 110.08c-3.18,1.79 -7.53,7.5 -10.04,13.16 -3.84,8.66 -10.64,13.55 -10.64,7.66 0,-5.99 15.38,-24.26 20.32,-24.13 5.61,0.14 5.63,0.34 0.35,3.31zm0.35 28.15c0,6.33 -4.64,8.56 -10.51,5.05 -3.64,-2.17 -3.57,-3.72 0.36,-7.71 5.47,-5.56 10.15,-4.33 10.15,2.66zm3.5 47.29c0,7.91 -8.65,3 -9.99,-5.66 -1.07,-6.99 -0.53,-7.45 4.38,-3.66 3.15,2.44 5.61,6.52 5.61,9.33z"/>
   <path class="fil2" d="M1595.19 2057.51c3.5,0.86 8.76,0.86 12.26,0 3.33,-0.81 0.53,-1.5 -6.13,-1.5 -6.66,0 -9.46,0.69 -6.13,1.5z"/>
   <path class="fil3" d="M1340.27 850.79c-133.85,65.52 -210.94,122.65 -260,192.71 -48.79,69.67 -66.21,137.89 -55.48,217.16 7.17,52.96 17.52,81.6 53.68,148.55 27.17,50.29 51.84,105.97 48.41,109.22 -2.61,2.47 -19.4,-30.29 -17.23,-33.62 1.3,-2 0.76,-2.51 -1.34,-1.27 -3.8,2.23 -24.58,-20.71 -22.99,-25.37 0.55,-1.6 -0.49,-1.86 -2.59,-0.67 -1.99,1.13 -8.06,-1.62 -14.02,-6.35 -28.37,-22.53 -76.39,-28.99 -113.88,-15.33 -22.77,8.3 -55.5,36.02 -66.49,56.31 -10.05,18.56 -10.79,43.3 -2.1,70.28 6.97,21.65 9.01,24.48 24.08,33.53 21.37,12.82 30.07,14.69 46.6,9.99 10,-2.84 16.11,-7.55 22.77,-17.54 10.22,-15.32 9.35,-19.37 -2.45,-11.51 -11.56,7.7 -19.97,6.55 -31.54,-4.34 -13.72,-12.91 -13.69,-27.79 0.07,-45.77 8.64,-11.3 13.6,-14.29 28.67,-17.32 16.12,-3.24 20,-2.85 33.64,3.37 19.76,9.01 30.76,23.28 36.22,46.92 10.76,46.66 -16.6,92.54 -69.5,116.57 -54.66,24.83 -113.37,10.06 -137.66,-34.64 -7.2,-13.25 -19.37,-59.95 -29.32,-112.58 -19.54,-103.25 -24.68,-119.25 -66.48,-206.83 -19.55,-40.97 -20.16,-41.78 -38.09,-50.63 -10.02,-4.94 -33.99,-17.39 -53.26,-27.66 -104.42,-55.62 -110.74,-58.39 -124.04,-54.4 -6.94,2.08 -56.76,19.22 -110.72,38.09 -53.96,18.87 -101.27,35.23 -105.12,36.37 -7.11,2.09 -11.5,11.26 -56.73,118.51 -10.39,24.65 -21.1,49.48 -23.69,54.96 -2.57,5.43 -8.25,17.82 -12.44,27.14l-7.71 17.15 17.87 28.14c9.73,15.32 17.87,29.06 17.87,30.14 0,1.09 13.46,23.15 29.78,48.79 16.32,25.64 29.78,48.3 29.78,50.13 0,1.88 3.5,4.01 8.06,4.9 9.92,1.93 112.13,17.46 128.6,19.53 10.69,1.34 15.42,-0.83 36.79,-16.94 13.66,-10.3 34.15,-26.45 46.25,-36.47l21.73 -17.99 -1.68 -22.31c-5.53,-73.61 -5.02,-70.75 -13.74,-75.94 -4.56,-2.71 -16.12,-7.82 -25.23,-11.16 -15.07,-5.52 -18.1,-5.66 -29.08,-1.33l-12.26 4.83 11.56 5.35c14.02,6.48 25.86,20.13 23.69,27.29 -0.91,2.99 -3.23,11.33 -5.3,18.99 -3.21,11.9 -6.31,15 -24.18,24.15l-20.5 10.49 -24.88 -10.82 -24.88 -10.82 -15.77 -37.8 -15.77 -37.8 9.01 -15.65c36.61,-63.62 52.01,-87.85 56.87,-89.43 3.06,-1 19.27,-6.96 35.74,-13.15l30.14 -11.33 28.03 9.47c36.79,12.43 74.37,34.28 93.16,54.15 19.65,20.79 38.83,58.95 46.03,91.59 3.24,14.69 7.35,51.29 9.17,81.6 6.63,110.58 20.79,149.83 71.52,198.17 44.66,42.56 100.03,60.6 160.65,52.33 30.48,-4.16 69.66,-19.9 90.05,-36.17 18.69,-14.92 14.64,-6.5 -8.4,17.49 -26.51,27.59 -63.08,48.73 -105.13,60.8 -24.02,6.89 -35.39,8.13 -73.93,8.04 -81.23,-0.19 -130.7,-17.27 -315.01,-108.73 -39.25,-19.47 -76,-34.56 -108.97,-44.73 -23.4,-7.21 -34.69,-8.64 -68.33,-8.64 -40.95,0 -63.77,3.3 -105.82,15.29 -18.92,5.4 -27.76,10.43 -45.55,25.95 -41.35,36.06 -79.89,96.19 -79.89,124.63 0,17.36 8.63,36.97 28.28,64.28 9.96,13.84 27.9,40.8 40.22,60.45 12.33,19.65 25.12,39.78 28.68,45.13 9.87,14.82 49.29,29.66 79.77,30.02 22.89,0.27 26.28,-0.66 50.81,-14.03 14.37,-7.83 33.91,-20.67 43.1,-28.31l16.82 -13.99 0.7 -23.65c0.63,-21.32 -0.33,-25.08 -9.81,-38.14l-10.51 -14.49 -1.84 16.32c-3.27,29.01 -17.43,41.48 -52.82,46.53 -30.32,4.32 -62.35,-17.89 -82.01,-56.85 -11.59,-22.98 -12.27,-25.94 -8.45,-36.97 16.96,-48.96 44.19,-73.89 93.96,-85.99 39.64,-9.64 66.58,-1.18 160.13,50.32 119.14,65.58 152.74,82.04 206.73,101.27 53.61,19.09 98.91,27.37 150.32,27.46 85.85,0.15 146.65,-24.97 208.29,-86.05l28.23 -27.98 -12.68 23.98c-14.44,27.31 -34.84,54.66 -53.2,71.32 -29.51,26.77 -89.35,59.24 -159.08,86.3l-23.83 9.25 0 82.77c0,45.63 1.02,82.77 2.28,82.77 1.29,-0 5.48,-3.33 9.65,-7.66 23.5,-24.41 90.74,-67.07 154.16,-97.8 100.57,-48.73 156.04,-84.06 205.68,-130.98 37.14,-35.11 67.11,-71.64 89.89,-109.61 17.72,-29.52 18.71,-26.65 4.6,13.32 -11.29,31.97 -28.44,65.72 -45.55,89.6 -5.97,8.32 -10.74,16.1 -10.74,17.49 0,1.37 79.54,2.5 176.95,2.5 97.41,-0 176.95,-0.98 176.95,-2.17 0,-1.22 -3.72,-6.83 -8.5,-12.82 -13.91,-17.46 -36.64,-62.95 -47.76,-95.59 -5.67,-16.65 -10.32,-31.21 -10.32,-32.31 0,-1.1 5.16,6.99 11.48,17.98 16.1,28.02 31.56,48.96 59.04,79.94 37.53,42.3 44.85,47.95 69.29,53.46 26.63,6 68.75,22.37 94.61,36.76 35.39,19.69 81.73,63.22 96.13,90.31 3.05,5.74 12.5,14.21 21.26,19.06 15.77,8.73 57.69,39.99 62.42,46.56 1.44,2 2.89,2.73 3.63,1.83 0.67,-0.82 12.49,-15.82 26.1,-33.14 13.62,-17.32 35.35,-41.45 48.01,-53.32 22.78,-21.36 26.65,-26.61 19.62,-26.61 -2.14,0 -8.06,-2.74 -13.31,-6.16 -5.27,-3.43 -20.32,-12.09 -33.99,-19.56 -146.11,-79.79 -177.58,-105.06 -218.89,-175.79l-11.67 -19.98 25.76 26.31c28.04,28.64 70.8,60.68 99.33,74.42 50.27,24.2 117.73,36.99 172.05,32.61 62.47,-5.04 125.09,-21.17 243.52,-62.74 93.91,-32.96 146.83,-45.58 190.62,-45.48 47.3,0.11 91.08,17.15 118.57,46.15 16.68,17.59 23.69,34.64 23.69,57.62 0,14.83 0.18,15.05 16.64,20.82 9.24,3.23 27.33,11.24 40.65,17.98 22.78,11.54 24.24,11.85 28.63,6.16 6.35,-8.23 28.47,-69.28 33.67,-92.93 3.83,-17.39 3.44,-20.32 -5.69,-43.3 -13.63,-34.31 -34.93,-70.3 -55.57,-93.92 -23.87,-27.31 -22.64,-26.31 -49.21,-39.97 -82.45,-42.36 -187.81,-53.58 -289.43,-30.8 -46.57,10.44 -78.49,21.85 -194.47,69.56 -71.13,29.26 -104.37,37.18 -155.93,37.18 -22.07,0 -47.42,-1.92 -56.06,-4.25 -42.05,-11.35 -93.82,-36.91 -89.19,-44.04 1.11,-1.71 -0.16,-2.23 -2.96,-1.2 -4.98,1.82 -38.88,-28.11 -45.42,-40.1 -3.48,-6.39 -3.28,-6.36 4.77,0.49 12.76,10.85 44.85,26.69 65.88,32.51 26.98,7.47 72.63,6.88 98.11,-1.27 68.86,-22.01 124.34,-82.02 144.5,-156.29 3.78,-13.92 9.82,-43.3 13.43,-65.28 13.28,-80.93 25.88,-117.94 54.54,-160.2 16.49,-24.31 51.71,-61.28 58.38,-61.28 1.52,0 8.76,-3.49 15.77,-7.6 31.17,-18.28 53.26,-23.99 92.16,-23.85 31.89,0.12 39.41,1.28 56.41,8.72 60.12,26.28 82.05,87.01 56.32,155.95 -17.53,46.96 -18.16,47.74 -45.11,55.87 -29.78,8.97 -30.29,8.97 -43.8,0.01 -22.08,-14.65 -23.22,-16.81 -19.1,-36.23 2.75,-12.99 15.12,-22.13 25.06,-18.52 11.21,4.07 13.32,-1.8 3.51,-9.8 -7.88,-6.43 -13.67,-7.99 -29.44,-7.99 -18.22,-0 -20.32,0.83 -29.45,11.66 -14.6,17.32 -26.96,44.8 -26.96,59.95 0,15.54 10.23,30.64 46.04,67.94l23.34 24.31 25.93 -2.28c35.74,-3.14 93.17,-11.18 107.92,-15.11 10.21,-2.72 14.85,-7.43 27.68,-28.08 8.49,-13.66 16.99,-23.91 18.92,-22.81 2.04,1.16 2.41,0.33 0.88,-2 -1.53,-2.32 10.8,-26.31 29.43,-57.29l32.06 -53.29 -12.27 -28.98c-6.72,-15.88 -21.21,-49.29 -32.06,-73.94 -10.85,-24.65 -26.37,-60.16 -34.34,-78.6l-14.54 -33.64 -26.28 -9.16c-14.4,-5.02 -42.75,-15.18 -62.72,-22.48 -19.97,-7.3 -45.31,-16.03 -56.06,-19.32 -10.86,-3.32 -23.53,-7.55 -28.38,-9.49 -4.87,-1.94 -19.97,-7.35 -33.99,-12.16l-25.23 -8.66 -58.87 29.64c-32.24,16.23 -70.76,35.97 -85.15,43.63 -14.36,7.64 -29.93,15.68 -34.34,17.72 -8.55,3.96 -42.04,66.21 -57.13,106.17 -4.4,11.66 -9.32,22.15 -10.85,23.16 -3.11,2.04 -25.02,77.09 -43.23,148.03 -17.18,66.94 -21.03,77 -37.52,97.92 -43.22,54.82 -130.76,44.63 -177.38,-20.65 -32.11,-44.96 -16.23,-107.36 31.07,-122.14 27.5,-8.59 58.33,9.57 62.04,36.54 2.25,16.32 -3.61,28.77 -16.49,35.03 -9.46,4.6 -24.53,1.5 -24.53,-5.05 0,-1.91 -2.1,-3.33 -4.9,-3.33 -7.37,-0 -2.8,11.99 8.76,22.98 13.29,12.63 35.04,15.43 52.21,6.73 30.86,-15.64 39.31,-30.04 40.92,-69.68 1,-24.65 0.11,-29.6 -7.46,-41.63 -20.04,-31.86 -47.12,-51.79 -81.81,-60.18 -20.5,-4.96 -24.53,-4.98 -46.95,-0.12 -29.78,6.44 -50.03,17.49 -70.85,38.66 -8.84,8.99 -16.13,15.27 -16.22,13.99 -0.1,-1.3 -3.99,5.66 -8.76,15.65 -4.77,9.99 -9.37,17.25 -10.34,16.32 -3.11,-2.95 22.17,-61.28 41.13,-94.92 22.72,-40.3 28.49,-51.37 37.54,-71.94 23.48,-53.39 31.24,-135.22 18.06,-190.51 -11.75,-49.29 -22.93,-74.47 -50.55,-113.91 -41.37,-59.06 -111.35,-115.66 -203.86,-164.88 -51.86,-27.6 -109.91,-55.82 -114.58,-55.71 -2.51,0.06 -29.78,12.46 -60.62,27.55zm332.88 773.91c6.63,45.96 -22.59,94.87 -65.88,110.27 -23.29,8.28 -38.9,8.95 -63.78,2.73 -16.47,-4.12 -40.29,-14.02 -40.29,-16.74 0,-1.22 77.79,-60.51 112.13,-85.46 8.76,-6.36 18.88,-14.2 22.77,-17.62 3.82,-3.36 11.39,-8.58 16.64,-11.49 5.26,-2.91 9.74,-6.84 9.87,-8.66 0.52,-7.41 6.13,10.32 8.53,26.98zm-520.7 -11.76c42.4,30 70.61,53.79 66.57,56.15 -2.57,1.5 -1.93,2.97 1.93,4.41 3.5,1.31 4.93,0.85 3.62,-1.17 -5.49,-8.47 6.37,-1.23 37.9,23.12l34.34 26.51 -9.81 4.82c-15.42,7.58 -46.4,15.5 -60.62,15.5 -47.51,0 -88.79,-33.97 -98.74,-81.27 -3.64,-17.32 -1.42,-61.95 3.08,-61.95 1.16,0 10.86,6.2 21.72,13.88z"/>
   <path class="fil3" d="M2324.2 1362.75c-10.86,3.18 -25.58,17.25 -25.58,24.47 0,2.24 -4.38,5.53 -9.99,7.49 -7.71,2.7 -11.42,2.49 -16.29,-0.9 -19.47,-13.56 -55.75,3.4 -71.38,33.37 -7.29,13.99 -7.95,17.75 -4.61,26.31 5.2,13.32 0.1,22.31 -12.66,22.31 -18.93,0 -32.27,14.99 -39.1,43.96 -4.24,17.98 0.53,37.6 10.37,42.63 8.76,4.48 9.27,16.69 0.7,16.83 -17.05,0.28 -29.99,22.14 -30.27,51.11 -0.21,21.65 0.29,23.08 11.35,32.42 13.67,11.55 14.81,19.54 2.8,19.54 -27.56,0 -51.8,47.63 -37.64,73.94 8.61,15.99 4.67,23.7 -9.66,18.93 -23.43,-7.8 -59.92,21.03 -59.92,47.35 0,34.64 40.9,36.98 69.84,4 10.18,-11.6 11.02,-14.32 10.06,-32.64l-1.05 -19.98 14.02 -1.85c20.32,-2.69 28.8,-8.15 37.41,-24.12 10.24,-18.98 10.27,-42.12 0.07,-55.29 -10.31,-13.32 -9.79,-18.94 2.11,-22.89 28.73,-9.55 37.42,-70.82 12.26,-86.52 -10.85,-6.77 -10.16,-13.79 1.75,-17.86 18.57,-6.34 34.61,-40.26 30.71,-64.91 -1.27,-7.99 -3.76,-15.48 -5.48,-16.48 -5.26,-3.05 4.21,-14.82 11.91,-14.82 22.07,0 65.17,-36.56 65.17,-55.29 0,-5.43 2.8,-9.01 8.76,-11.16 7.01,-2.53 10.44,-1.56 17.17,4.83 15.06,14.31 51.86,14.85 70.43,1.02 10.16,-7.56 19.27,-5.84 19.27,3.64 0,9.08 22.78,26.98 34.34,26.98 21.37,0 24.22,-18.27 5.61,-35.97 -11.3,-10.74 -13.49,-11.49 -27.86,-9.49 -15.07,2.09 -15.76,1.78 -20.5,-9.16 -2.74,-6.33 -8.92,-13.86 -14.02,-17.07 -11.14,-7.02 -34.69,-9.25 -50.11,-4.74zm35.92 21.47c6.66,4.87 6.66,5.12 -0,9.99 -3.68,2.69 -11.04,5 -15.94,5 -4.9,0 -12.26,-2.31 -15.94,-5 -6.66,-4.87 -6.66,-5.12 0,-9.99 3.68,-2.69 11.04,-5 15.94,-5 4.91,0 12.26,2.31 15.94,5zm-103.55 32.31c0,4.61 -26.28,29.31 -31.19,29.31 -6.79,0 -8.21,-9.33 -2.58,-16.99 11.01,-14.99 33.77,-23.29 33.77,-12.32zm171.85 -2.33c7.27,8.32 0.54,10.32 -7.87,2.33 -6.31,-6 -6.69,-7.33 -2.1,-7.33 3.16,-0 7.52,2.18 9.97,5zm-241.56 90.59c0.71,10.66 -1.12,19.28 -6.03,28.31 -9.03,16.62 -17.95,8.66 -13.8,-12.32 3.43,-17.32 18.91,-29.8 19.84,-15.99zm-18.57 112.58c1.2,13.99 -4.84,28.31 -11.94,28.31 -8.92,-0 -11.68,-24.98 -4.05,-36.64 6.99,-10.68 14.71,-6.66 16,8.33zm-21 102.25c0.8,9.66 -0.88,13.64 -8.64,20.48 -7.71,6.79 -10.62,7.72 -14.54,4.64 -5.94,-4.67 -3.34,-19.13 5.54,-30.79 8.74,-11.46 16.42,-8.99 17.64,5.66zm-57.55 81.27c1.42,3.55 -2.08,9.18 -10.49,16.87 -14.02,12.82 -16.06,13.38 -22.53,6.11 -3.73,-4.18 -2.35,-6.86 8.52,-16.53 14.37,-12.78 21.25,-14.59 24.5,-6.45z"/>
   <path class="fil3" d="M604.93 1433.85c-3.22,4.66 -5.74,11.4 -5.74,15.32 0,10.99 8.85,27.77 18.92,35.87 9.11,7.33 12.14,14.09 6.31,14.09 -5.55,-0 -11.21,16.99 -11.21,33.64 0,18.32 7.81,36.3 15.77,36.3 6.66,-0 6.66,12.17 0,14.6 -9.33,3.41 -19.27,23.03 -19.27,38.02 0,17.98 8.42,37.39 17.17,39.56 9.81,2.43 11.43,13.54 2.8,19.29 -22.67,15.12 -5.61,75.04 21.37,75.04 12.61,0 18.27,8.93 12.44,19.65 -9.05,16.65 -2.9,39.98 13.84,52.48 4.91,3.66 8.46,7.42 7.71,8.14 -0.77,0.73 7.88,1.78 19.1,2.33 18.92,0.92 21.09,0.28 28.23,-8.32 11.64,-14.03 8.39,-37.64 -7.3,-52.96 -12.61,-12.32 -31.28,-19.03 -44.24,-15.88 -10.26,2.49 -10.38,-1.44 -0.53,-17.09 6.22,-9.89 7.17,-15.32 5.44,-30.97 -1.81,-16.32 -3.85,-20.51 -14.54,-29.81 -7.01,-6.1 -15.5,-10.82 -19.45,-10.82 -3.85,0 -7.01,-2.25 -7.01,-5 0,-2.66 2.13,-4.99 4.56,-4.99 13.98,-0 27.6,-39.3 20.08,-57.95 -4.43,-10.99 -16.22,-21.98 -23.58,-21.98 -7.66,0 -5.25,-11.48 3.16,-15.01 27.22,-11.43 18.92,-76.78 -9.11,-71.77 -6.31,1.13 -8.93,-7.79 -3.87,-13.14 8.82,-9.33 9.01,-27.31 0.44,-41.97 -9.73,-16.65 -22.7,-19.4 -31.48,-6.66zm21.06 25.48c1.65,8.33 1.17,10.53 -1.75,7.99 -2.22,-1.93 -5.05,-8.66 -6.31,-14.99 -1.65,-8.33 -1.17,-10.53 1.75,-7.99 2.22,1.93 5.05,8.66 6.31,14.99zm22.08 74.11c0.1,3.34 -1.61,9.16 -3.86,13.16 -3.93,6.99 -4.14,7.01 -8.8,0.83 -5.77,-7.66 -6.06,-25.68 -0.49,-30.98 3.37,-3.2 5.08,-2.5 8.59,3.5 2.34,4 4.46,10.29 4.56,13.49zm-2.06 74.27c4.04,9.99 2.21,27.23 -3.37,31.61 -7.39,5.8 -11.96,-0.64 -12.03,-16.96 -0.07,-16.32 10.61,-26.49 15.4,-14.65zm14.97 100.25c5.41,12.32 2.43,27.64 -5.38,27.64 -6.13,-0 -14.37,-14.32 -14.37,-24.98 0,-18.99 11.88,-20.59 19.75,-2.66zm45.16 82.93c9.46,9.66 11.8,23.09 4.47,25.6 -12.97,4.44 -35.52,-21.82 -26.28,-30.6 6.13,-5.83 12.68,-4.33 21.81,5z"/>
   <path class="fil3" d="M1955.93 1842.85c-12.26,3.89 -20.83,8.05 -19.27,9.37 9.74,8.25 60.62,13.54 76.04,7.9 7.57,-2.77 7.01,-9.94 -1.4,-17.93 -9.1,-8.65 -26.63,-8.44 -55.36,0.67z"/>
   <path class="fil3" d="M2307.38 2040.05c-84.44,13.36 -155.47,39.92 -222.5,83.23 -35.39,22.86 -95.86,80.76 -118.64,113.58 -32.5,46.83 -58.29,106.58 -67.27,155.87 -5.7,31.31 -2.59,124.09 5.05,150.55 7.02,24.31 22.94,65.53 26.87,69.61 4.76,4.94 73.75,-29.31 94.42,-46.87 14.37,-12.2 17.14,-13.67 11.54,-6.08 -17.05,23.08 -60.6,57.01 -92.49,72.03 -69.73,32.86 -144.63,28.59 -211.64,-12.08 -18.85,-11.44 -54.19,-43.64 -82.64,-75.28l-14.07 -15.65 20.32 -5.58c40.3,-11.07 73.84,-30.69 107.73,-63.03 32.97,-31.46 46.52,-51.62 61.74,-91.93 7.23,-19.14 8.2,-27.64 8.35,-73.27 0.16,-47.63 -0.53,-53.43 -8.98,-74.94 -24.86,-63.28 -78.87,-115.27 -143.27,-137.89 -46.73,-16.41 -56.41,-16.98 -288.38,-16.98 -119.84,0 -218.53,1.2 -219.68,2.66 -11.44,14.66 -88.14,62.84 -94.28,59.22 -2.01,-1.19 -3.44,-0.44 -2.98,1.56 0.48,2.12 -13.49,10.73 -31.36,19.32l-32.24 15.49 -0.18 50.63 -0.18 50.63 -27.33 14.21c-93.56,48.66 -164.9,100.62 -204.54,148.99l-9.55 11.66 0 -183.02c0,-100.58 -0.08,-184.89 -0.18,-187.18 -0.14,-3.23 -22.25,-4.16 -98.29,-4.16l-98.11 0 0 114.91 0 114.91 -192.72 0 -192.72 0 -0.88 -114.07 -0.87 -114.08 -93.73 -0.83 -93.73 -0.83 0 354.71c0,195.18 0.79,354.71 1.75,354.71 1.81,0 51.16,-31.48 139.46,-88.98l48.01 -31.26 0 -89.76 0 -89.76 192.72 0 192.72 0 0 149.38 0 149.38 -12.97 9.75c-28.27,21.26 -64.82,30.06 -101.62,24.46 -34.34,-5.23 -49.16,-13.67 -72.91,-41.54 -22.36,-26.23 -25.61,-34.97 -26.02,-69.94 -0.23,-19.65 0.07,-20.31 18.16,-39.3l18.4 -19.32 19.62 5.49c16.82,4.71 20.2,7.02 23.68,16.16 6.08,15.98 5.04,23.81 -4.62,34.64 -10.47,11.74 -8.54,14.63 6.52,9.79 25.37,-8.14 33.93,-20.12 38.67,-54.09 2.18,-15.65 1.57,-17.59 -10.24,-32.31 -13.63,-16.99 -70.77,-55.95 -82.05,-55.95 -9.15,-0 -77.44,39.63 -100.21,58.16l-18.57 15.11 -7.18 37.47c-3.96,20.65 -8.99,52.05 -11.21,69.94 -3.47,27.98 -3.28,33.53 1.34,40.13 8.23,11.73 55.73,63.95 91.8,100.92l32.83 33.64 41.35 7.67c130,24.1 213.86,3.35 275.92,-68.28 32.83,-37.9 55.11,-85.27 75.99,-161.54 28.07,-102.58 46.25,-141.61 85.63,-183.85 20.25,-21.72 87.71,-67.47 136.42,-92.52l18.92 -9.73 1.23 190.51c1.08,168.2 1.93,192.78 7.23,209.83 13.84,44.51 46.39,96.92 92.68,149.21 23.46,26.5 28.16,30.03 62.85,47.13 57.11,28.16 71.11,32.47 113.18,34.79 41.43,2.29 82.7,-3.27 130.35,-17.54l26.98 -8.09 29.96 -42.97c16.49,-23.65 36.1,-55.39 43.62,-70.61l13.67 -27.64 -9.81 -25.14c-5.46,-13.99 -10.95,-28.1 -12.39,-31.81 -8.64,-22.32 -34.38,-76.98 -37.72,-80.1 -5.2,-4.86 -45.9,-19.06 -80.59,-28.1l-26.98 -7.04 -18.57 11.56c-36.09,22.47 -51.51,40.94 -51.51,61.71 0,26.98 15.33,49.23 37.49,54.43 11.56,2.72 12.8,-2.63 2.8,-12.13 -9.21,-8.75 -11.54,-24.31 -5.28,-35.3 3.4,-5.98 27,-16.65 36.81,-16.65 2.66,0 14.37,5.71 25.58,12.49l20.67 12.49 5.26 29.31 5.26 29.31 -11.03 17.32c-28.21,44.3 -28.22,44.3 -59.75,52.16 -19.97,4.98 -43.85,4.35 -61.67,-1.63 -19.59,-6.57 -53.55,-37.87 -63.13,-58.19 -15.64,-33.17 -17.11,-48.63 -17.11,-179.19l0 -123.9 90.58 0 90.58 0 22.61 23.98c85.42,90.59 111.1,118.9 112.99,124.57 1.16,3.46 8.85,13.49 17,22.15 8.15,8.66 19.41,21.1 24.88,27.48 6.4,7.47 14.89,12.91 23.65,15.15 12.26,3.14 13.66,4.56 13.66,13.82 0,7.29 3.5,13.47 11.91,21.01 13.31,11.95 24.58,15.43 36.44,11.28 11.08,-3.88 17.17,-0.65 19.48,10.34 4.62,21.98 52,39.3 67.41,24.65 8.49,-8.07 18.3,-6.33 22.48,4 4.27,10.55 16.77,17.63 35.34,20.02 18.92,2.44 41.37,-5.38 44.09,-15.35 2.18,-7.99 10.41,-8.72 18.63,-1.65 7.22,6.21 28.03,9.91 39.95,7.1 13.67,-3.23 30.14,-18.22 30.13,-27.43 0,-5.66 2,-7.99 6.83,-7.99 3.85,0 7.79,1.45 9.03,3.33 3.13,4.73 21.63,3.9 32.49,-1.46 13.67,-6.74 22.1,-16.63 24.89,-29.19 2.32,-10.47 3.14,-10.94 17.16,-9.95 29.43,2.08 52.41,-20.88 48.36,-48.34l-2.11 -14.32 13.67 0.58c18.13,0.77 29.41,-6.57 38.75,-25.23 6.17,-12.32 6.92,-17 4.25,-26.31 -4.11,-14.32 -1.52,-17.97 12.71,-17.91 24.53,0.1 48.69,-35.71 39.82,-59.03 -5.32,-13.99 -5.22,-15.32 1.18,-15.32 10.34,0 26.22,-10.32 31.77,-20.65 4.18,-7.77 5.2,-15.49 3.8,-28.48 -1.84,-16.99 -1.5,-17.98 7.18,-21.15 4.91,-1.79 11.95,-6.41 15.25,-9.99 7.07,-7.66 11.94,-24.44 8.6,-29.64 -1.2,-1.88 1.37,-3.33 5.93,-3.33 13.32,-0 30.86,-12.02 33.05,-22.65 1.92,-9.33 2.51,-9.6 17.58,-7.99 12.26,1.31 17.8,0.1 25.93,-5.66 5.61,-3.98 10.34,-5.96 10.34,-4.33 0,3.18 13.31,8.76 28.38,11.89 29.09,6.04 38.91,45.18 16.91,67.38 -9.81,9.9 -6.75,12.9 8.32,8.18 24.42,-7.66 43.44,-39.82 39.32,-66.47 -4.87,-31.47 -14.79,-45.39 -51.58,-72.36 -19.21,-14.08 -22.08,-15.08 -52.21,-18.24 -33.86,-3.54 -57.82,-1.22 -100.21,9.72 -18.01,4.65 -26.28,9.54 -48.35,28.59 -14.72,12.7 -36.19,33.49 -48.01,46.46l-21.37 23.48 1.93 -31.31c4.06,-65.95 36.9,-121.76 97.23,-165.22 21.14,-15.23 73.94,-37.39 106.17,-44.56 37.85,-8.42 108.64,-9.35 145.77,-1.91 48,9.62 106.2,36.29 135.6,62.15 10.64,9.36 -2.1,16.11 102.32,-54.22 30.14,-20.3 61.03,-41.19 68.33,-46.21l13.32 -9.16 -25.58 -19.76c-80.1,-61.89 -149.97,-93.83 -250.53,-114.54 -43.8,-9.02 -155.53,-11.76 -199.03,-4.88zm-710.96 183.03c22.07,7.66 41.55,23.57 48.68,39.76 2.94,6.66 5.28,21.32 5.28,32.97 0,33.31 -18.21,59.35 -52.56,75.2 -26.21,12.09 -57.82,14.06 -225.31,14.06l-160.13 0 0 -85.1 0 -85.1 183.08 1c168.19,0.92 184.54,1.5 200.96,7.21zm738.99 191.52c6.31,1.27 8.9,3.11 6.48,4.61 -2.17,1.35 -8.23,1.01 -13.14,-0.74 -15.42,-5.47 -23.14,-3.9 -33.87,6.9 -5.63,5.66 -10.84,8.55 -12.03,6.66 -3.45,-5.47 -16.47,-4.12 -28.73,2.97 -9.38,5.42 -11.56,8.85 -11.56,18.18 0,10.99 -0.46,11.41 -10.51,9.66 -8.93,-1.56 -12.44,0 -23.3,10.32 -11.92,11.33 -12.65,13.16 -10.69,26.81 2.01,13.99 1.66,14.75 -7.71,16.67 -24.18,4.96 -40.34,39.58 -26.59,56.94 7.65,9.66 6.39,13.98 -3.55,12.17 -12.55,-2.29 -26.98,4.48 -35.8,16.81 -9.77,13.66 -14.07,37.14 -8.06,43.96 7.19,8.16 2.51,12.31 -14.67,13 -14.02,0.56 -18.06,2.32 -27.16,11.82 -5.93,6.2 -11.54,16.49 -12.61,23.15 -1.07,6.66 -2.47,14.51 -3.15,17.65 -0.65,3 -0.15,5.35 1.05,5 1.37,-0.4 2.65,0.4 3.21,2 2.36,6.73 -0.23,8.06 -9.34,4.79 -21.3,-7.66 -49.41,13.87 -49.41,37.85 0,9.33 -1.48,12.99 -5.26,12.99 -6.31,0 -7.05,-5.47 -1.05,-7.71 4.63,-1.73 -18.22,0.39 -31.53,2.92 -4.18,0.8 -13.32,6.19 -19.97,11.79 -9.67,8.14 -12.27,12.82 -12.27,22.15l0 11.82 -9.11 -7.99c-7.25,-6.36 -12.62,-7.94 -26.28,-7.75 -19.97,0.29 -33.36,7.81 -41.64,23.4l-5.31 9.99 -15.24 -10.99c-12.26,-8.84 -18.4,-10.99 -31.36,-10.99 -17.17,0 -37.66,9.06 -41.4,18.32 -3.21,7.94 -11.86,5.99 -11.86,-2.66 0,-4.1 -4.56,-11.81 -9.81,-16.59 -18.22,-16.58 -42.63,-20.42 -57.82,-9.08 -10.86,8.11 -12.97,8.12 -12.97,0.02 0,-20.69 -18.57,-35.11 -44.85,-34.83 -17.17,0.18 -18.73,-0.45 -20.67,-8.3 -1.15,-4.66 -4.63,-11.42 -7.71,-14.99 -4.81,-5.57 -3.85,-5.42 6.66,1.04 30.02,18.43 79.19,36.91 122.64,46.08 36.09,7.61 118.41,7.64 154.18,0.05 26.28,-5.58 97,-36.58 112.48,-49.32 4.21,-3.46 9.3,-5.36 11.21,-4.18 2.1,1.3 2.64,0.83 1.34,-1.17 -2.93,-4.52 17.93,-21.8 22.84,-18.92 2.1,1.23 2.98,0.9 1.93,-0.73 -1.05,-1.64 8.49,-14.32 21.05,-27.98 28.39,-30.86 64.53,-81.93 96.62,-136.56 47.55,-80.93 87.92,-120.4 136.54,-133.48 23.13,-6.22 32.83,-6.91 49.76,-3.52zm-17.52 13.77c-1.12,1.78 -4.55,3.33 -7.36,3.33 -2.8,0 -4.28,-1.55 -3.16,-3.33 1.12,-1.78 4.56,-3.33 7.36,-3.33 2.8,0 4.28,1.56 3.15,3.33zm-43.97 15.82c-0.09,1.32 -4.21,5.31 -8.76,8.49 -8.41,5.87 -8.58,5.86 -8.58,-0.67 0,-5.52 4.21,-8.3 15.07,-9.95 1.47,-0.22 2.38,0.62 2.28,2.12zm-41.87 36.8c0,4.33 -10.78,17.32 -14.37,17.32 -4.6,0 -3.85,-11.32 1.05,-15.99 4.56,-4.33 13.32,-5.21 13.32,-1.33zm-32.78 58.95c2.48,6.23 -7.87,21.65 -14.53,21.65 -6.77,-0 -6.61,-9.99 0.29,-19.32 6.42,-8.66 11.4,-9.48 14.23,-2.33zm-37.3 70.94c0,8.33 -13.15,27.31 -18.92,27.31 -10.81,0 -9.37,-15.65 2.62,-28.64 5.72,-6.2 16.3,-5.33 16.3,1.33zm-53.85 72.28c2.69,6.68 -12.02,24.98 -20.08,24.98 -8.93,0 -8.59,-9.99 0.73,-21.32 7.95,-9.66 16.3,-11.24 19.35,-3.66zm-522.55 61.62c3.47,3.66 4.73,6.66 2.8,6.66 -1.93,0 -6.34,-3 -9.81,-6.66 -3.47,-3.66 -4.73,-6.66 -2.8,-6.66 1.93,0 6.34,3 9.81,6.66zm466.38 1.67c3.23,7.98 -8.06,21.65 -17.87,21.65 -11.76,0 -11.56,-10.81 0.35,-19.77 10.86,-8.17 14.81,-8.59 17.52,-1.88zm-407.16 42.03c4.9,3.73 8.21,8.31 7.16,9.93 -2.88,4.42 -22.57,-6.33 -22.57,-12.32 0,-6.57 4.56,-5.86 15.42,2.4zm340.82 4.93c2.74,6.82 -8.64,17.63 -19.86,18.85 -11.56,1.26 -13.29,-8.07 -3.15,-17.03 9.46,-8.36 20.05,-9.2 23.01,-1.83zm-262.33 26.59c9.81,6.54 10,14.71 0.35,14.71 -8.06,0 -21.28,-6.01 -24.92,-11.33 -6.52,-9.53 11.6,-12.02 24.57,-3.38zm189.92 9.38c0,11.33 -23.98,18.84 -32.94,10.33 -5.63,-5.35 -5.64,-5.99 -0.26,-11.66 10.05,-10.59 33.2,-9.66 33.2,1.33zm-94.26 8.41c7.01,5.43 7.45,6.94 3.39,11.58 -9,10.28 -35.28,4.33 -35.28,-7.99 0,-11.2 19.27,-13.37 31.89,-3.59z"/>
   <path class="fil3" d="M942.35 2487c-7.16,7.26 -11.16,8.47 -24.83,7.49 -9.11,-0.65 -15.68,-0.21 -14.89,1 0.76,1.17 -2.45,3.07 -7.01,4.14 -19.04,4.46 -44.15,40.66 -44.15,63.64 0,7.66 12.53,28.31 17.17,28.31 1.66,0 2.32,3 1.4,6.33 -1.23,4.43 -5.96,6.85 -15.77,8.07 -29.39,3.66 -52.91,31.89 -52.91,63.54 0,19.65 4.6,30.35 17.52,40.77 12.32,9.93 8.41,21.18 -7.36,21.18 -34.34,0 -65.42,52.96 -50.24,85.6 2.32,5 6.37,10.56 8.72,11.99 2.31,1.4 4.38,5.66 4.38,8.99 0,5.6 -2.1,6.14 -18.22,4.67 -23.83,-2.17 -38.85,5.2 -54.32,26.64 -12.02,16.65 -15.09,33.94 -7.35,41.3 3.58,3.4 3.5,4.94 -0.35,7.16 -3.15,1.82 -6.66,1.17 -9.81,-1.83 -7.08,-6.73 -31.53,-5.81 -49.41,1.86 -10.86,4.66 -16.49,9.72 -20.16,18.12 -5.09,11.66 -12.08,18.59 -12.08,11.99 0,-2 -5.26,-5.74 -11.56,-8.22 -13.13,-5.18 -30.84,-2.59 -45.9,6.72 -8.41,5.19 -10.12,5.29 -15.42,0.91 -6.66,-5.51 -67.99,-12.05 -62.02,-6.61 6.23,5.67 34.69,19.78 42.05,20.85 3.86,0.56 11.56,-0.1 17.17,-1.48 8.06,-1.98 11.83,-0.99 18.22,4.79 12.9,11.67 32.94,12.35 51.86,1.74 13.67,-7.66 16.43,-8.27 18.16,-4.04 2.97,7.3 23.19,12.01 37.91,8.81 23.48,-5.09 40.64,-21.19 40.64,-38.12 0,-9.58 7.71,-12.26 21.37,-7.42 14.3,5.06 39.08,-5.23 53.51,-22.22 14.71,-17.32 17.54,-25.8 13.36,-39.97 -4.14,-13.99 0.2,-22.31 11.62,-22.31 20.92,0 46.98,-18.32 56.38,-39.64 9.4,-21.32 5.36,-52.56 -8.03,-62.02 -8.49,-6 -2.45,-20.6 9.46,-22.88 13.71,-2.62 37.3,-23.35 41.74,-36.67 9.21,-27.64 6.74,-49.47 -7.22,-63.95 -8.92,-9.25 -5.43,-17.98 7.18,-17.98 21.86,0 54.18,-32.31 58.29,-58.29 1.37,-8.66 0.6,-19.56 -1.88,-26.65 -3.51,-9.99 -3.28,-13.32 1.32,-19.98 11.05,-15.99 5.22,-20.3 -8.55,-6.33zm-20.95 41.3c5.02,8.85 -5.1,29.59 -17.72,36.29 -22.43,11.91 -29.13,-12.27 -8.76,-31.63 13.32,-12.66 21.16,-14.04 26.48,-4.66zm-52.41 122.9c0,26.98 -28.55,47.87 -36.41,26.64 -4.44,-11.99 -0.07,-25.61 11.88,-36.97 8.41,-7.99 11.4,-9.03 17.35,-5.99 5.29,2.7 7.18,6.99 7.18,16.32zm-42.7 122.57c2.07,19.98 -17.39,42.05 -32.29,36.62 -7.5,-2.74 -7.13,-23.3 0.63,-34.96 7.98,-11.99 11.53,-14.13 21.8,-13.15 7.12,0.68 8.97,2.83 9.86,11.49zm-70.09 101.59c1.67,8.3 -17.91,25.98 -28.77,25.98 -13.4,0 -12.27,-13.51 2.1,-25.05 11.91,-9.57 24.85,-10.02 26.67,-0.93zm-88.2 59.95c3.63,5.6 -11.71,15.99 -23.62,15.99 -12.96,0 -13.16,-8.18 -0.35,-14.77 11.56,-5.94 20.61,-6.4 23.97,-1.22zm-84.59 19.32c-1.14,1.81 -6.83,3.33 -12.44,3.33 -5.61,0 -10.34,-1.52 -10.34,-3.33 0,-1.88 5.43,-3.33 12.44,-3.33 7.36,0 11.58,1.36 10.34,3.33z"/>
   <path class="fil3" d="M2631.47 2568.6c-12.68,13.93 -50.43,40.42 -77.06,54.08 -95.31,48.86 -230.6,46.76 -317.46,-4.92 -22.77,-13.55 -29.43,-15.48 -29.43,-8.52 0,2.36 -5.49,15.15 -12.09,28.15 -8.79,17.32 -16.15,26.63 -26.98,34.14 -8.06,5.59 -16.58,9.71 -18.57,8.99 -2.02,-0.73 -3.78,3.33 -3.89,8.99 -0.33,15.9 -10.93,33.97 -31.46,53.62l-18.44 17.65 9.11 6.39c13.94,9.77 69.03,35.55 97.06,45.43 61.42,21.64 116.68,30.18 196.22,30.33 51.16,0.1 70.35,-1.27 101.62,-7.25 90.05,-17.22 170.09,-51.79 238.27,-102.92 33.99,-25.49 70.61,-57.02 68.33,-58.84 -0.96,-0.77 -23.83,-16.92 -50.81,-35.88 -26.98,-18.96 -63.48,-44.66 -81.12,-57.12 -17.52,-12.38 -32.62,-22.5 -33.29,-22.32 -0.68,0.18 -5.16,4.66 -10.01,9.99z"/>
  </g>
 </g>
</svg>
