<?xml version="1.0" encoding="UTF-8"?>
<!DOCTYPE svg PUBLIC "-//W3C//DTD SVG 1.1//EN" "http://www.w3.org/Graphics/SVG/1.1/DTD/svg11.dtd">
<!-- Creator: CorelDRAW X7 -->
<svg xmlns="http://www.w3.org/2000/svg" xml:space="preserve" width="6.26736cm" height="7.31569cm" version="1.1" style="shape-rendering:geometricPrecision; text-rendering:geometricPrecision; image-rendering:optimizeQuality; fill-rule:evenodd; clip-rule:evenodd"
viewBox="0 0 5546 6473"
 xmlns:xlink="http://www.w3.org/1999/xlink">
 <defs>
  <style type="text/css">
   <![CDATA[
    .str1 {stroke:#FEFEFE;stroke-width:6.74258}
    .str0 {stroke:#E23338;stroke-width:6.74258}
    .fil1 {fill:#FEFEFE}
    .fil0 {fill:#E23338}
   ]]>
  </style>
 </defs>
 <g id="Camada_x0020_1">
  <metadata id="CorelCorpID_0Corel-Layer"/>
  <g id="_2418677646288">
   <path class="fil0 str0" d="M2789 7c-13,22 -58,84 -106,147 -20,26 -49,66 -66,89 -16,23 -54,73 -83,112 -29,39 -84,112 -121,162 -36,51 -86,117 -109,147l-42 55 32 137 31 137 -24 38c-14,21 -56,83 -94,137 -52,75 -72,109 -82,142 -7,23 -20,64 -29,89l-17 47 -22 -47c-23,-50 -23,-46 -40,-317 -2,-41 -6,-75 -9,-75 -2,0 -14,20 -26,43 -12,24 -55,104 -96,178l-74 136 42 147c66,229 65,192 10,287 -43,77 -57,95 -57,76 0,-4 -9,-31 -20,-61 -11,-29 -34,-97 -53,-150 -18,-54 -35,-100 -37,-102 -2,-2 -35,60 -72,137l-68 141 34 73c48,101 80,174 111,252 15,38 29,74 32,80 7,13 -25,-9 -107,-73 -25,-19 -46,-34 -46,-34 -1,1 6,29 15,63 15,52 31,84 98,197 44,75 81,137 82,138 2,1 9,-3 18,-10 9,-7 34,-20 54,-29 35,-14 46,-16 113,-16 41,0 74,-1 74,-1 0,-1 -3,-7 -6,-12 -11,-17 -53,-109 -61,-134 -19,-61 -31,-149 -27,-199 25,-293 246,-512 713,-707l61 -26 -4 -36c-3,-20 -7,-48 -11,-62 -3,-15 -10,-45 -14,-68 -5,-23 -11,-53 -14,-68 -3,-15 -5,-27 -4,-28 1,-1 37,58 81,132 57,97 83,135 96,140 346,155 510,261 615,397 111,146 148,295 116,466 -11,59 -51,159 -74,187 -7,8 -13,16 -13,17 0,2 28,2 63,0 76,-3 112,5 163,35 21,13 39,23 41,23 1,0 11,-15 21,-34 26,-47 29,-52 88,-149 39,-65 57,-101 70,-146 22,-73 22,-79 3,-60 -33,30 -137,107 -137,100 0,-4 7,-26 16,-49 22,-54 73,-202 78,-227 4,-14 2,-19 -5,-19 -5,-1 -3,-3 5,-6 9,-3 17,-15 23,-36 5,-18 17,-51 25,-73l16 -41 -40 -98c-22,-53 -48,-117 -57,-140 -9,-24 -18,-43 -20,-43 -3,0 -21,54 -41,119 -35,114 -51,162 -69,202 -8,18 -8,18 -50,-47 -29,-43 -42,-70 -41,-82 0,-10 12,-98 26,-196l25 -179 -78 -109c-43,-60 -83,-118 -89,-129l-11 -19 -6 33c-3,18 -9,83 -14,145 -9,108 -10,114 -35,162 -30,58 -37,66 -46,52 -3,-5 -44,-50 -92,-100l-86 -92 10 -47c5,-26 20,-100 33,-167 14,-66 26,-122 28,-124 2,-4 -119,-131 -134,-142 -6,-4 -186,-186 -208,-210l-16 -17 5 182 5 182 -54 -58c-29,-32 -64,-69 -77,-83l-23 -24 -2 -389c-1,-360 -2,-388 -13,-371zm496 965c-2,3 -9,6 -14,6 -6,0 -10,-3 -10,-6 0,-3 6,-6 14,-6 8,0 12,3 10,6zm-788 63c-14,13 -22,7 -11,-10 6,-9 10,-11 15,-6 6,4 5,9 -4,16zm294 4c-8,16 -24,17 -18,1 2,-5 5,-13 7,-19 3,-6 6,-7 11,-4 4,4 4,12 0,22zm-5 25c14,4 14,20 1,20 -6,0 -11,-1 -11,-2 0,-2 -2,-7 -4,-12 -5,-11 -3,-12 14,-6zm-61 53c-2,4 -7,8 -11,8 -6,0 -5,-3 0,-12 9,-13 18,-11 11,4zm-381 101c-2,5 -4,11 -4,14 0,3 -2,6 -6,6 -3,0 -4,-7 -3,-15 2,-8 7,-15 10,-15 4,0 6,4 3,10zm-102 41c2,9 1,9 -9,3 -13,-10 -15,-21 -2,-17 5,1 10,8 11,14zm1130 313c0,4 -3,8 -7,8 -7,0 -15,-16 -9,-20 6,-5 16,2 16,12zm72 43c-16,21 -31,31 -31,21 0,-6 44,-50 47,-47 2,1 -5,13 -16,26zm-74 55c-1,4 -6,8 -11,9 -5,2 -7,-1 -4,-7 5,-11 19,-13 15,-2zm348 300c8,12 3,15 -13,6 -6,-3 -8,-8 -5,-12 7,-9 10,-8 18,6zm-1905 195c-6,3 -15,13 -20,23 -7,15 -21,24 -21,14 0,-11 31,-43 40,-43 12,0 12,0 1,6zm1 50c0,11 -9,15 -21,8 -7,-3 -7,-6 1,-13 11,-10 20,-8 20,5zm7 83c0,14 -17,6 -20,-10 -2,-12 -1,-13 9,-6 6,4 11,11 11,16z"/>
   <path class="fil1" d="M3152 3650c7,1 17,1 24,0 7,-2 1,-3 -12,-3 -13,0 -19,1 -12,3z"/>
   <path class="fil1" d="M2648 1511c-264,116 -417,218 -514,342 -96,123 -130,244 -109,385 14,93 34,144 106,263 54,89 102,188 96,193 -6,5 -39,-53 -35,-59 3,-4 2,-5 -2,-2 -8,3 -49,-37 -46,-45 1,-3 -1,-4 -5,-2 -4,2 -16,-2 -27,-11 -56,-40 -151,-51 -225,-27 -45,15 -110,64 -132,100 -20,33 -21,76 -4,124 14,39 18,44 48,60 42,22 59,26 92,17 19,-5 32,-13 45,-31 20,-27 18,-34 -5,-20 -23,14 -40,12 -62,-8 -28,-23 -27,-49 0,-81 17,-20 27,-25 56,-31 32,-5 40,-5 67,6 39,16 61,42 71,84 22,82 -32,164 -137,206 -108,44 -224,18 -272,-61 -14,-24 -38,-106 -58,-200 -39,-183 -49,-211 -131,-366 -39,-73 -40,-74 -76,-90 -19,-9 -67,-31 -105,-49 -206,-99 -219,-103 -245,-96 -14,3 -112,34 -219,67 -106,34 -200,63 -207,65 -14,3 -23,19 -112,210 -21,43 -42,87 -47,97 -5,10 -16,32 -25,48l-15 30 35 50c20,27 36,52 36,54 0,2 26,41 58,86 33,46 59,86 59,89 0,3 7,7 16,9 20,3 222,31 254,34 21,3 31,-1 73,-30 27,-18 67,-47 91,-64l43 -32 -3 -40c-11,-130 -10,-125 -27,-134 -9,-5 -32,-14 -50,-20 -30,-10 -36,-10 -57,-2l-25 8 23 10c28,11 51,35 47,48 -2,5 -6,20 -10,34 -7,21 -13,26 -48,42l-41 19 -49 -19 -49 -19 -31 -67 -31 -67 17 -28c73,-113 103,-156 113,-159 6,-1 38,-12 70,-23l60 -20 55 17c73,22 147,61 184,96 39,37 77,104 91,162 7,26 15,91 18,145 14,196 42,265 142,351 88,75 197,107 317,93 60,-8 138,-36 178,-64 37,-27 29,-12 -16,31 -53,48 -125,86 -208,107 -48,13 -70,15 -146,15 -161,-1 -259,-31 -623,-193 -77,-35 -150,-61 -215,-79 -46,-13 -69,-16 -135,-16 -81,0 -126,6 -209,27 -37,10 -55,19 -90,46 -82,64 -158,171 -158,221 0,31 17,66 56,114 20,25 55,72 79,107 25,35 50,71 57,80 20,27 97,53 158,53 45,1 52,-1 100,-24 28,-14 67,-37 85,-51l33 -24 2 -42c1,-38 -1,-45 -20,-68l-20 -26 -4 29c-6,52 -34,74 -104,83 -60,8 -123,-32 -162,-101 -23,-41 -25,-46 -17,-65 33,-87 87,-131 186,-153 78,-17 131,-2 316,89 235,117 302,146 408,180 106,34 196,48 297,48 170,1 290,-44 412,-152l56 -50 -25 43c-29,48 -69,97 -105,126 -59,48 -177,105 -315,153l-47 17 0 146c0,81 2,147 5,147 2,0 11,-6 19,-14 46,-43 179,-118 304,-173 199,-86 309,-149 407,-232 73,-62 132,-127 177,-194 35,-53 37,-48 10,23 -23,57 -57,117 -91,159 -11,15 -21,29 -21,31 0,3 157,4 350,4 192,0 350,-1 350,-3 0,-2 -8,-12 -17,-23 -28,-31 -73,-112 -95,-169 -11,-30 -20,-56 -20,-58 0,-2 10,13 23,32 31,50 62,87 116,142 74,75 89,85 137,95 53,10 136,39 187,65 70,35 162,112 190,160 6,10 25,25 42,34 31,15 114,70 123,82 3,4 6,5 8,3 1,-1 24,-28 51,-58 27,-31 70,-74 95,-95 45,-38 53,-47 39,-47 -4,0 -16,-5 -27,-11 -10,-6 -40,-21 -67,-35 -288,-141 -351,-186 -432,-311l-23 -36 51 47c55,51 140,108 196,132 99,43 233,65 340,58 123,-9 247,-38 481,-112 186,-58 290,-80 377,-80 93,0 180,30 234,82 33,31 47,61 47,102 0,26 0,26 33,37 18,5 54,20 80,32 45,20 48,21 56,10 13,-14 57,-122 67,-164 8,-31 7,-36 -11,-77 -27,-61 -69,-125 -110,-166 -47,-49 -45,-47 -97,-71 -163,-75 -371,-95 -572,-55 -92,19 -155,39 -384,123 -141,52 -207,66 -308,66 -44,0 -94,-3 -111,-7 -83,-20 -186,-66 -176,-78 2,-3 -1,-4 -6,-2 -10,3 -77,-50 -90,-71 -7,-12 -7,-12 9,0 26,20 89,48 131,58 53,13 143,12 193,-2 136,-39 246,-146 286,-277 7,-25 19,-77 26,-116 27,-143 52,-209 108,-284 33,-43 102,-108 116,-108 3,0 17,-7 31,-14 61,-32 105,-42 182,-42 63,0 78,2 111,15 119,47 162,154 112,277 -35,83 -36,84 -90,99 -58,16 -59,16 -86,0 -44,-26 -46,-30 -38,-65 6,-23 30,-39 50,-32 22,7 26,-4 7,-18 -16,-11 -27,-14 -59,-14 -36,0 -40,2 -58,21 -29,31 -53,79 -53,106 0,28 20,54 91,120l46 44 51 -4c71,-6 184,-20 213,-27 21,-5 30,-13 55,-50 17,-24 34,-42 38,-40 4,2 4,0 1,-4 -3,-4 22,-47 58,-102l64 -94 -24 -51c-14,-28 -42,-88 -64,-131 -21,-44 -52,-107 -68,-140l-28 -59 -52 -16c-29,-9 -85,-27 -124,-40 -40,-13 -90,-29 -111,-35 -21,-5 -46,-13 -56,-16 -10,-4 -40,-13 -67,-22l-50 -15 -116 52c-64,29 -140,64 -169,78 -28,13 -59,27 -67,31 -17,7 -84,117 -113,188 -9,21 -19,39 -22,41 -6,4 -49,137 -85,263 -34,118 -42,136 -74,173 -86,97 -259,79 -351,-37 -63,-79 -32,-190 62,-216 54,-15 115,17 122,65 5,29 -7,51 -32,62 -19,8 -49,3 -49,-9 0,-3 -4,-6 -10,-6 -14,0 -5,21 18,41 26,22 69,27 103,12 61,-28 78,-54 81,-124 2,-43 0,-52 -15,-74 -40,-56 -93,-91 -162,-106 -40,-9 -48,-9 -92,0 -59,11 -99,31 -140,68 -18,16 -32,27 -32,25 -1,-2 -8,10 -18,28 -9,17 -18,30 -20,28 -6,-5 44,-108 81,-168 45,-71 56,-91 74,-127 47,-95 62,-240 36,-338 -23,-87 -45,-132 -100,-202 -82,-104 -220,-205 -403,-292 -102,-49 -217,-99 -226,-99 -5,0 -59,22 -120,49zm658 1372c13,81 -45,168 -130,195 -46,15 -77,16 -126,5 -33,-7 -80,-25 -80,-30 0,-2 154,-107 222,-151 17,-11 37,-25 45,-31 7,-6 22,-16 32,-21 11,-5 20,-12 20,-15 1,-13 12,18 17,48zm-1029 -21c84,53 140,95 132,99 -5,3 -4,6 3,8 7,2 10,2 8,-2 -11,-15 12,-2 74,41l68 47 -19 9c-31,13 -92,27 -120,27 -94,0 -175,-60 -195,-144 -7,-31 -3,-110 6,-110 2,0 22,11 43,25z"/>
   <path class="fil1 str1" d="M4592 2418c-21,6 -50,31 -50,44 0,4 -9,10 -20,13 -15,5 -23,5 -32,-1 -39,-25 -110,6 -141,59 -15,24 -16,31 -9,46 10,24 0,40 -25,40 -38,0 -64,26 -78,78 -8,32 1,66 21,75 17,8 18,30 1,30 -34,1 -59,39 -60,91 0,38 1,41 23,57 27,21 29,35 5,35 -54,0 -102,84 -74,131 17,28 9,42 -19,33 -46,-13 -119,38 -119,84 0,62 81,66 138,7 21,-20 22,-25 20,-57l-2 -36 28 -3c40,-5 57,-15 74,-43 20,-34 20,-75 0,-98 -20,-24 -19,-33 4,-40 57,-17 74,-126 24,-154 -21,-12 -20,-24 4,-31 37,-12 68,-72 61,-115 -3,-15 -8,-28 -11,-30 -11,-5 8,-26 23,-26 44,0 129,-65 129,-98 0,-10 6,-16 17,-20 14,-4 21,-3 34,9 30,25 103,26 139,2 20,-14 38,-11 38,6 0,16 45,48 68,48 43,0 48,-32 11,-64 -22,-19 -26,-20 -55,-17 -29,4 -31,3 -40,-16 -6,-11 -18,-24 -28,-30 -22,-13 -68,-17 -99,-9zm71 39c13,8 13,9 0,17 -7,5 -22,9 -31,9 -10,0 -25,-4 -32,-9 -13,-8 -13,-9 0,-17 7,-5 22,-9 32,-9 9,0 24,4 31,9zm-204 57c0,8 -52,52 -62,52 -14,0 -16,-17 -5,-30 22,-27 67,-42 67,-22zm339 -4c14,14 1,18 -15,4 -13,-11 -14,-13 -5,-13 7,0 15,4 20,9zm-477 160c1,19 -2,34 -12,50 -18,30 -36,16 -27,-21 6,-31 37,-53 39,-29zm-37 200c3,24 -9,50 -23,50 -18,0 -24,-44 -8,-65 13,-19 29,-12 31,15zm-41 181c1,17 -2,24 -17,36 -16,12 -21,14 -29,8 -12,-8 -7,-33 11,-54 17,-20 32,-16 35,10zm-114 144c3,6 -4,16 -21,30 -27,23 -32,24 -44,11 -8,-8 -5,-12 17,-30 28,-22 42,-25 48,-11z"/>
   <path class="fil1" d="M1195 2544c-6,9 -11,21 -11,28 0,19 17,49 37,63 18,13 24,25 13,25 -11,0 -22,30 -22,60 0,32 15,64 31,64 13,0 13,22 0,26 -19,6 -38,41 -38,67 0,32 16,67 34,70 19,5 22,24 5,35 -45,26 -11,133 42,133 25,0 36,15 25,34 -18,30 -6,71 27,93 10,7 17,14 15,15 -1,1 16,3 38,4 38,2 42,1 56,-15 23,-25 17,-66 -14,-94 -25,-21 -62,-33 -88,-28 -20,5 -20,-2 -1,-30 12,-18 14,-27 11,-55 -4,-29 -8,-36 -29,-53 -14,-11 -30,-19 -38,-19 -8,0 -14,-4 -14,-9 0,-4 4,-9 9,-9 27,0 54,-69 40,-102 -9,-20 -33,-39 -47,-39 -15,0 -10,-21 6,-27 54,-20 38,-136 -18,-127 -12,2 -17,-14 -7,-23 17,-17 17,-49 0,-75 -19,-29 -44,-34 -62,-12zm42 46c3,14 2,18 -4,14 -4,-4 -10,-16 -12,-27 -3,-15 -2,-18 3,-14 5,3 10,15 13,27zm43 131c1,6 -3,16 -7,23 -8,13 -8,13 -18,2 -11,-14 -12,-46 -1,-55 7,-6 11,-5 17,6 5,7 9,18 9,24zm-4 132c8,17 5,48 -6,56 -15,10 -24,-2 -24,-30 0,-29 21,-47 30,-26zm30 177c11,22 5,49 -11,49 -12,0 -28,-25 -28,-44 0,-34 23,-37 39,-5zm89 147c19,17 24,41 9,46 -26,7 -70,-39 -52,-55 12,-10 25,-7 43,9z"/>
   <path class="fil1" d="M3865 3269c-25,7 -42,15 -39,17 20,15 120,24 151,14 15,-5 14,-18 -3,-32 -18,-15 -53,-15 -109,1z"/>
   <path class="fil1" d="M4559 3619c-167,23 -307,71 -440,147 -70,41 -189,143 -234,202 -64,83 -115,188 -133,276 -11,55 -5,220 10,267 14,43 45,116 53,123 9,9 146,-52 187,-83 28,-22 33,-24 22,-11 -33,41 -119,101 -182,128 -138,58 -286,51 -418,-22 -38,-20 -108,-77 -164,-133l-28 -28 41 -10c79,-19 145,-54 212,-111 66,-56 92,-92 122,-163 15,-34 17,-49 17,-130 0,-84 -1,-95 -18,-133 -49,-112 -156,-204 -283,-244 -92,-29 -111,-30 -570,-30 -236,0 -431,2 -434,4 -22,26 -174,112 -186,105 -4,-2 -7,0 -6,3 1,4 -27,19 -62,34l-63 28 -1 89 0 90 -54 25c-185,87 -326,179 -404,264l-19 21 0 -324c0,-179 0,-328 -1,-332 0,-6 -44,-7 -194,-7l-194 0 0 203 0 204 -380 0 -381 0 -2 -202 -2 -202 -185 -2 -185 -1 0 628c0,346 2,629 3,629 4,0 102,-56 276,-158l95 -55 0 -159 0 -159 381 0 380 0 0 264 0 265 -25 17c-56,38 -128,54 -201,44 -68,-10 -97,-24 -144,-74 -44,-46 -51,-62 -51,-124 -1,-35 0,-36 35,-69l37 -35 39 10c33,8 39,12 46,29 12,28 10,42 -9,61 -20,21 -17,26 13,17 50,-14 67,-35 77,-95 4,-28 3,-32 -21,-58 -27,-30 -140,-99 -162,-99 -18,0 -153,70 -198,103l-37 27 -14 66c-8,37 -17,93 -22,124 -7,50 -6,60 3,71 16,21 110,114 181,179l65 60 82 14c257,42 422,5 545,-121 65,-68 109,-152 150,-287 55,-182 91,-251 169,-326 40,-38 173,-119 270,-164l37 -17 3 338c2,298 3,341 14,372 27,79 91,171 183,264 46,47 56,53 124,84 113,50 141,57 224,61 82,4 163,-5 257,-31l54 -14 59 -76c32,-42 71,-98 86,-125l27 -49 -19 -45c-11,-25 -22,-50 -25,-56 -17,-40 -68,-137 -74,-142 -11,-9 -91,-34 -160,-50l-53 -13 -37 21c-71,40 -101,72 -101,109 0,48 30,88 74,97 23,5 25,-5 5,-22 -18,-15 -23,-43 -10,-62 6,-11 53,-30 73,-30 5,0 28,10 50,22l41 22 10 52 11 52 -22 31c-56,79 -56,79 -118,92 -40,9 -87,8 -122,-2 -39,-12 -106,-68 -125,-104 -31,-58 -34,-86 -34,-317l0 -220 179 0 179 0 45 43c169,160 220,211 223,221 3,6 18,23 34,39 16,15 38,37 49,49 13,13 29,22 47,26 24,6 27,8 27,25 0,13 7,24 23,37 27,21 49,27 72,20 22,-7 34,-1 39,18 9,39 103,70 133,44 17,-14 36,-11 44,7 9,19 34,31 70,36 38,4 82,-10 87,-28 5,-14 21,-15 37,-2 14,11 56,17 79,12 27,-6 60,-32 60,-48 0,-11 4,-15 13,-15 8,0 15,3 18,6 6,9 43,7 64,-2 27,-12 44,-30 49,-52 5,-19 7,-19 34,-18 58,4 104,-37 96,-85l-4 -26 27 1c35,2 58,-11 76,-44 12,-22 14,-31 9,-47 -9,-25 -3,-32 25,-32 48,0 96,-63 78,-104 -10,-25 -10,-28 3,-28 20,0 52,-18 62,-36 9,-14 11,-28 8,-51 -4,-30 -3,-31 14,-37 10,-3 24,-11 30,-18 14,-13 24,-43 17,-52 -2,-4 3,-6 12,-6 26,0 61,-22 65,-40 4,-17 5,-17 35,-15 24,3 35,1 51,-10 11,-7 21,-10 21,-7 0,5 26,15 56,21 57,11 77,80 33,119 -19,18 -13,23 17,15 48,-14 85,-71 77,-118 -9,-56 -29,-81 -102,-128 -38,-25 -43,-27 -103,-33 -67,-6 -114,-2 -198,18 -35,8 -52,16 -95,50 -29,23 -72,60 -95,83l-42 41 3 -55c8,-117 73,-216 193,-293 41,-27 146,-66 209,-79 75,-15 215,-17 288,-3 95,17 210,64 268,110 21,16 -4,28 202,-96 60,-36 121,-73 135,-82l27 -17 -51 -35c-158,-109 -296,-166 -495,-203 -86,-16 -307,-20 -393,-8zm-1405 324c44,14 82,42 96,71 6,11 11,37 11,58 0,59 -36,105 -104,133 -52,22 -114,25 -445,25l-317 0 0 -151 0 -150 362 1c332,2 365,3 397,13zm1460 340c13,2 18,5 13,8 -4,2 -16,2 -26,-2 -30,-9 -46,-6 -67,13 -11,10 -21,15 -24,12 -6,-10 -32,-8 -56,5 -19,9 -23,15 -23,32 0,19 -1,20 -21,17 -18,-3 -25,0 -46,18 -24,20 -25,24 -21,48 4,25 3,26 -15,29 -48,9 -80,71 -53,101 15,17 13,25 -7,22 -25,-4 -53,8 -71,30 -19,24 -27,66 -15,78 14,14 4,21 -29,23 -28,1 -36,4 -54,21 -12,11 -23,29 -25,41 -2,11 -5,25 -6,31 -2,5 -1,9 2,9 3,-1 5,0 6,3 5,12 0,15 -18,9 -42,-14 -98,24 -98,67 0,16 -3,23 -10,23 -13,0 -14,-10 -2,-14 9,-3 -36,1 -63,5 -8,2 -26,11 -39,21 -19,15 -24,23 -24,40l0 20 -18 -14c-15,-11 -25,-14 -52,-13 -40,0 -66,13 -83,41l-10 18 -30 -20c-24,-15 -37,-19 -62,-19 -34,0 -75,16 -82,32 -6,14 -23,11 -23,-4 0,-8 -9,-21 -20,-30 -36,-29 -84,-36 -114,-16 -21,14 -26,14 -26,0 0,-37 -36,-62 -88,-62 -34,1 -37,0 -41,-14 -2,-9 -9,-21 -15,-27 -10,-10 -8,-9 13,2 59,33 156,65 242,82 71,13 234,13 305,0 52,-10 191,-65 222,-88 8,-6 18,-9 22,-7 4,2 5,1 3,-2 -6,-8 35,-39 45,-34 4,2 6,2 4,-1 -2,-3 17,-25 41,-50 56,-54 128,-145 191,-242 94,-143 174,-213 270,-236 46,-11 65,-12 98,-6zm-34 24c-3,3 -9,6 -15,6 -5,0 -8,-3 -6,-6 2,-3 9,-6 14,-6 6,0 9,3 7,6zm-87 28c0,2 -8,9 -17,15 -17,11 -17,10 -17,-1 0,-10 8,-15 29,-18 3,0 5,1 5,4zm-83 65c0,8 -21,31 -28,31 -9,0 -8,-20 2,-28 9,-8 26,-10 26,-3zm-65 105c5,11 -15,38 -28,38 -14,0 -13,-18 0,-34 13,-15 23,-17 28,-4zm-73 125c0,15 -26,49 -38,49 -21,0 -18,-28 5,-51 12,-11 33,-9 33,2zm-107 129c6,11 -24,44 -39,44 -18,0 -17,-18 1,-38 16,-17 32,-20 38,-6zm-1032 109c7,6 9,12 5,12 -4,0 -12,-6 -19,-12 -7,-7 -9,-12 -6,-12 4,0 13,5 20,12zm921 3c7,14 -16,38 -35,38 -23,0 -23,-19 1,-35 21,-14 29,-15 34,-3zm-804 74c9,7 16,15 14,18 -6,8 -45,-11 -45,-22 0,-12 9,-10 31,4zm673 9c6,12 -17,31 -39,33 -23,3 -26,-14 -6,-30 18,-15 39,-16 45,-3zm-518 47c19,12 20,26 1,26 -16,0 -43,-11 -50,-20 -13,-17 23,-21 49,-6zm375 17c0,20 -47,33 -65,18 -11,-9 -11,-11 -1,-21 20,-18 66,-17 66,3zm-186 15c14,9 15,12 7,20 -18,18 -70,8 -70,-14 0,-20 38,-24 63,-6z"/>
   <path class="fil1" d="M1862 4411c-14,13 -22,15 -49,13 -18,-1 -31,0 -30,2 2,2 -4,5 -13,7 -38,8 -88,72 -88,113 0,14 25,50 34,50 4,0 5,6 3,11 -2,8 -12,13 -31,15 -58,6 -105,56 -105,112 0,35 9,54 35,73 24,17 17,37 -15,37 -67,0 -129,94 -99,152 5,9 13,19 17,21 5,3 9,10 9,16 0,10 -4,11 -36,8 -47,-4 -77,10 -107,48 -24,29 -30,60 -15,73 7,6 7,8 -1,12 -6,4 -13,2 -19,-3 -14,-12 -62,-10 -98,3 -21,9 -32,18 -39,33 -10,20 -24,33 -24,21 0,-4 -11,-10 -23,-15 -26,-9 -61,-4 -91,12 -16,9 -20,10 -30,2 -13,-10 -135,-22 -123,-12 13,10 69,35 83,37 8,1 23,0 34,-3 16,-3 24,-1 36,9 26,21 65,22 103,3 27,-14 32,-15 36,-7 5,13 45,21 74,15 47,-9 81,-37 81,-67 0,-17 15,-22 42,-13 28,9 77,-10 106,-40 29,-30 34,-45 26,-71 -8,-24 1,-39 23,-39 41,0 93,-33 112,-70 18,-38 10,-93 -16,-110 -17,-11 -5,-37 18,-41 27,-4 74,-41 83,-65 18,-49 13,-87 -14,-113 -18,-16 -11,-32 14,-32 43,0 107,-57 115,-103 3,-16 1,-35 -4,-47 -7,-18 -6,-24 3,-36 22,-28 10,-36 -17,-11zm-41 73c9,16 -11,53 -36,64 -44,22 -57,-21 -17,-56 26,-22 42,-25 53,-8zm-104 218c0,48 -56,85 -72,47 -9,-21 0,-45 23,-65 17,-15 23,-16 35,-11 10,5 14,12 14,29zm-84 217c4,36 -35,75 -64,65 -15,-5 -14,-41 1,-62 16,-21 23,-25 43,-23 14,1 18,5 20,20zm-139 180c3,15 -35,46 -57,46 -26,0 -24,-24 4,-44 24,-17 49,-18 53,-2zm-174 106c7,10 -23,29 -47,29 -25,0 -26,-15 -1,-26 23,-11 41,-12 48,-3zm-167 35c-3,3 -14,6 -25,6 -11,0 -20,-3 -20,-6 0,-4 10,-6 24,-6 15,0 23,2 21,6z"/>
   <path class="fil1" d="M5199 4556c-25,24 -99,71 -152,95 -188,87 -456,83 -627,-8 -45,-24 -58,-28 -58,-15 0,4 -11,26 -24,49 -18,31 -32,48 -54,61 -15,10 -32,17 -36,16 -4,-1 -8,6 -8,16 -1,28 -22,60 -62,95l-37 31 18 11c28,18 137,63 192,81 122,38 231,53 388,54 101,0 139,-3 201,-13 178,-31 336,-92 470,-183 68,-45 140,-101 135,-104 -1,-1 -47,-30 -100,-63 -53,-34 -125,-80 -160,-102 -35,-22 -65,-40 -66,-39 -1,0 -10,8 -20,18z"/>
   <path class="fil1" d="M2777 5521c-24,66 -58,160 -87,237 -13,38 -25,71 -25,75 0,7 45,8 53,1 2,-2 11,-24 20,-50 29,-83 71,-198 92,-254l21 -54 -29 0 -29 0 -16 45z"/>
   <path class="fil1" d="M2502 5596c-57,42 -72,56 -72,68 1,12 17,27 73,67 63,46 73,51 86,46 27,-12 17,-32 -38,-73 -28,-22 -52,-42 -51,-44 0,-2 23,-20 52,-40 44,-30 51,-38 51,-54 0,-13 -4,-19 -14,-21 -11,-2 -32,10 -87,51z"/>
   <path class="fil1" d="M2915 5564c0,13 2,24 5,24 3,0 24,15 47,32 22,18 43,33 46,33 14,0 1,12 -46,47 -45,33 -52,41 -52,58 0,34 25,26 104,-32 57,-43 69,-54 69,-68 0,-10 -3,-17 -5,-17 -3,0 -17,-9 -31,-19 -70,-55 -110,-81 -123,-81 -12,0 -14,3 -14,23z"/>
   <path class="fil1 str1" d="M651 5676l0 18 799 2c440,0 800,0 800,-2 1,-1 2,-10 3,-19l3 -16 -802 0 -803 0 0 17z"/>
   <polygon class="fil1" points="3269,5676 3270,5694 4072,5694 4874,5694 4874,5676 4874,5659 4071,5659 3268,5659 "/>
   <path class="fil1" d="M1475 5916l0 32 40 0 41 0 3 -30c1,-17 1,-31 -1,-33 -1,-1 -21,-2 -43,-2l-40 0 0 33z"/>
   <path class="fil1" d="M651 6052l3 163 41 0 40 1 1 -68 1 -67 103 -2 103 -2 -2 70c-2,78 -9,70 56,68l28 -1 0 -163 0 -162 -44 0 -43 0 0 63 0 64 -100 0 -101 0 0 -64 0 -63 -45 0 -45 0 4 163z"/>
   <path class="fil1" d="M2749 6053l0 164 41 0 42 0 0 -55 0 -55 54 0 55 0 40 55 41 55 47 0c25,0 46,-2 46,-5 0,-2 -17,-26 -38,-54 -20,-27 -38,-51 -38,-53 0,-2 5,-4 11,-4 7,0 22,-8 35,-20l24 -20 0 -60c0,-46 -3,-64 -12,-77 -22,-32 -42,-35 -202,-35l-146 0 0 164zm266 -96c14,13 14,61 0,78 -10,13 -16,13 -97,13l-86 0 0 -50 0 -50 86 0c69,0 88,2 97,9z"/>
   <path class="fil1" d="M3554 5895c-8,2 -22,13 -33,23l-18 19 0 115c0,162 -3,160 184,162l124 2 0 -31 1 -30 -99 0c-56,0 -106,-3 -113,-7 -13,-5 -14,-13 -14,-95 0,-78 2,-90 12,-97 9,-5 40,-8 113,-8l100 0 1 -30 1 -29 -122 0c-67,0 -129,3 -137,6z"/>
   <path class="fil1" d="M1712 5911l-37 2 0 29 0 30 -24 0 -24 0 0 29 0 30 24 0 24 0 0 69c0,58 3,72 14,89 8,10 15,19 16,19 1,1 37,3 79,5 50,2 79,1 79,-2 0,-4 1,-17 1,-30l0 -23 -46 0c-34,0 -48,-3 -53,-9 -4,-5 -7,-34 -7,-64l0 -56 45 2c50,3 50,3 49,-33l0 -23 -47 -2 -47 -2 0 -29c0,-16 -2,-30 -5,-31 -3,-1 -21,-1 -41,0z"/>
   <path class="fil1" d="M1142 5982c-33,16 -38,37 -34,124 3,78 3,79 23,93 18,14 22,15 136,15l118 0 0 -30 0 -29 -93 4c-91,3 -93,3 -101,-10 -18,-28 -9,-31 100,-29 63,1 101,0 103,-4 5,-13 -2,-103 -9,-114 -15,-25 -42,-30 -137,-30 -70,0 -92,2 -106,10zm165 50c5,4 8,14 8,22l0 15 -65 -2c-65,-2 -66,-2 -66,-16 0,-7 5,-17 12,-20 17,-8 101,-8 111,1z"/>
   <polygon class="fil1" points="1476,6094 1478,6217 1518,6217 1558,6217 1558,6094 1558,5972 1516,5972 1475,5972 "/>
   <path class="fil1" d="M1959 5983c-13,6 -26,16 -28,22 -3,6 -6,47 -6,91 0,117 4,120 148,118 145,-2 149,-5 149,-117 0,-87 -5,-103 -38,-116 -34,-14 -192,-12 -225,2zm179 101c3,78 4,76 -64,76 -50,0 -60,-1 -65,-10 -7,-11 -5,-103 3,-114 2,-3 31,-5 64,-4l60 2 2 50z"/>
   <path class="fil1" d="M2300 6093l2 123 38 0 38 1 2 -80c2,-78 3,-80 20,-91 11,-7 34,-12 62,-14l44 -3 0 -29 0 -28 -35 0c-21,0 -45,4 -62,11 -32,15 -33,15 -32,2 1,-9 -5,-11 -39,-12l-39 -2 1 122z"/>
   <path class="fil1" d="M3891 5974c-2,2 -3,15 -1,30l2 27 78 -4c82,-4 87,-2 96,26 3,13 3,13 -73,13 -108,0 -130,13 -130,81 0,28 3,35 20,49 11,10 27,18 36,18 65,2 105,-1 123,-9 27,-12 29,-12 29,1 0,9 6,10 36,10l37 0 0 -105 0 -104 -19 -16c-19,-16 -21,-16 -125,-18 -58,-1 -107,-1 -109,1zm172 158c3,22 -17,29 -70,27 -39,-1 -44,-3 -46,-15 -4,-25 11,-32 64,-30 48,2 50,3 52,18z"/>
   <path class="fil1" d="M4223 6094l0 123 38 0 38 0 1 -68c0,-38 0,-74 0,-81 -2,-21 30,-37 77,-37 30,0 42,2 45,9 2,5 4,47 4,93l1 84 41 -1 40 0 -1 -99c-1,-109 -5,-126 -37,-138 -31,-12 -115,-9 -142,4 -27,15 -27,15 -31,0 -3,-10 -9,-11 -39,-11l-35 0 0 122z"/>
   <path class="fil1" d="M4612 5981c-29,17 -36,38 -36,114 0,114 6,119 157,119l101 0 20 -19 20 -18 0 -79c0,-45 -3,-85 -8,-93 -14,-26 -45,-33 -146,-33 -72,0 -96,2 -108,9zm177 111c2,42 0,60 -6,63 -14,8 -106,6 -115,-2 -12,-10 -12,-114 0,-119 5,-1 34,-2 64,-2l55 2 2 58z"/>
   <path class="fil1" d="M871 6005c8,1 22,1 31,0 8,-1 1,-2 -16,-2 -17,0 -24,1 -15,2z"/>
   <path class="fil1" d="M3174 6151c-2,5 -3,21 -2,36l2 28 42 0 41 0 2 -36 3 -36 -43 0c-29,0 -43,2 -45,8z"/>
   <path class="fil1" d="M2541 6393c0,65 0,67 17,74 9,4 22,6 27,5 12,-4 11,-24 -1,-27 -6,-2 -9,-22 -9,-61 0,-58 0,-58 -17,-58l-17 0 0 67z"/>
   <path class="fil1" d="M3205 6354c-1,15 -3,24 -4,20 -4,-9 -33,-9 -51,-1 -16,7 -30,43 -25,62 8,27 30,38 73,36l39 -2 2 -72 2 -71 -18 0c-16,0 -18,2 -18,28zm-10 40c14,5 14,40 0,50 -8,5 -12,4 -23,-6 -15,-12 -14,-34 2,-43 9,-5 9,-5 21,-1z"/>
   <path class="fil1" d="M4431 6349c-2,123 -2,121 13,122 8,0 15,-2 15,-5 0,-3 6,-2 13,1 22,10 40,7 55,-9 22,-24 17,-72 -9,-86 -11,-7 -42,-5 -50,2 -5,4 -7,-2 -7,-20 1,-22 -1,-26 -15,-27 -14,-2 -15,1 -15,22zm68 49c10,9 11,38 1,43 -14,7 -41,-3 -41,-15 0,-28 22,-44 40,-28z"/>
   <path class="fil1" d="M993 6339c-2,5 -3,36 -2,70l2 61 32 1c80,2 122,-43 94,-100 -6,-13 -19,-24 -34,-30 -29,-11 -87,-13 -92,-2zm78 27c15,8 23,35 15,53 -8,19 -18,25 -43,25 -18,0 -18,0 -18,-42 0,-41 0,-41 19,-41 10,0 22,2 27,5z"/>
   <path class="fil1" d="M3902 6336c-1,1 6,30 17,64 10,34 19,64 20,66 0,2 9,4 19,4 18,0 20,-2 33,-45l14 -46 9 34c15,52 20,60 38,60 15,0 18,-5 37,-63 11,-35 20,-66 20,-69 0,-4 -8,-6 -17,-6 -16,0 -19,3 -28,39 -13,49 -17,53 -23,24 -10,-52 -18,-66 -36,-66 -12,0 -18,4 -21,13 -2,7 -7,29 -13,49 -7,29 -10,32 -13,20 -3,-8 -9,-29 -14,-46 -7,-27 -11,-32 -24,-33 -8,-1 -16,0 -18,1z"/>
   <path class="fil1" d="M1254 6381c-25,23 -24,59 1,78 24,17 53,18 75,3 13,-9 15,-13 8,-19 -6,-5 -12,-5 -26,0 -14,6 -21,6 -28,0 -17,-12 -11,-15 26,-15l37 1 -3 -21c-4,-40 -58,-56 -90,-27zm54 18c6,6 3,8 -18,8 -21,1 -23,0 -16,-8 11,-11 24,-11 34,0z"/>
   <path class="fil1" d="M1469 6376c-17,10 -20,33 -6,43 4,3 17,8 28,10 22,5 30,14 15,18 -7,2 -16,0 -23,-6 -9,-7 -15,-7 -21,-2 -13,11 -10,20 9,27 27,11 50,9 67,-5 21,-18 14,-36 -20,-50 -35,-14 -38,-22 -6,-17 28,4 41,-7 21,-19 -17,-11 -45,-10 -64,1z"/>
   <path class="fil1" d="M1671 6382c-35,30 -12,91 36,91 26,0 59,-16 54,-26 -5,-11 -18,-12 -38,-3 -10,5 -16,5 -23,0 -18,-13 -11,-17 25,-16 20,1 38,-1 39,-3 17,-45 -53,-77 -93,-43zm58 19c2,5 -4,7 -19,7 -19,0 -21,-1 -14,-8 10,-11 29,-10 33,1z"/>
   <path class="fil1" d="M1879 6375c-2,5 -3,27 -1,52 2,42 2,43 19,43 16,0 17,-2 21,-38 3,-37 5,-39 27,-36 3,0 8,17 9,37 2,34 3,38 17,39 15,2 16,0 16,-42 0,-33 -3,-47 -11,-54 -12,-11 -33,-11 -52,-3 -9,5 -13,5 -13,1 0,-10 -28,-8 -32,1z"/>
   <path class="fil1" d="M2096 6370c-2,2 6,25 18,52 20,42 25,48 39,48 15,0 20,-6 39,-48 12,-27 20,-50 18,-52 -2,-2 -9,-3 -16,-3 -14,0 -34,33 -34,55 0,17 -8,8 -20,-24 -8,-20 -15,-29 -25,-30 -8,-1 -16,0 -19,2z"/>
   <path class="fil1" d="M2334 6377c-47,33 -20,96 41,96 25,0 55,-31 55,-56 0,-42 -59,-66 -96,-40zm50 23c23,20 3,56 -24,43 -15,-7 -18,-34 -5,-45 11,-10 16,-9 29,2z"/>
   <path class="fil1" d="M2691 6371c-2,2 -2,7 1,10 2,4 12,25 22,48 14,35 20,42 35,43 15,2 19,-2 37,-45 10,-26 19,-50 19,-52 -1,-3 -8,-5 -17,-5 -13,0 -17,5 -26,35l-11 35 -13 -37c-10,-30 -15,-36 -28,-36 -8,0 -17,2 -19,4z"/>
   <path class="fil1" d="M2925 6382c-24,20 -23,57 1,77 20,16 41,18 68,7 20,-7 24,-28 5,-28 -7,0 -15,2 -19,5 -8,6 -38,-2 -38,-10 0,-4 16,-6 38,-5 38,2 39,1 39,-15 0,-23 -28,-46 -56,-46 -14,0 -27,5 -38,15zm57 18c1,4 -6,7 -18,7 -22,1 -29,-7 -13,-12 13,-5 28,-2 31,5z"/>
   <path class="fil1" d="M3370 6385c-18,16 -20,21 -16,40 7,42 59,61 96,36 45,-30 21,-94 -35,-94 -18,0 -29,5 -45,18zm57 15c4,4 7,15 6,24 -2,13 -6,17 -20,17 -13,0 -18,-4 -19,-17 -5,-30 14,-44 33,-24z"/>
   <path class="fil1" d="M3586 6415c0,25 -1,49 -2,51 0,2 7,5 17,6 19,2 19,1 21,-35 2,-34 4,-38 18,-39 11,-2 15,-6 15,-16 0,-13 -2,-14 -34,-14l-35 0 0 47z"/>
   <path class="fil1" d="M4227 6377c-40,33 -19,96 31,96 26,0 55,-11 55,-22 0,-11 -21,-16 -35,-9 -10,6 -16,5 -28,-3 -15,-10 -14,-11 25,-11 22,-1 41,-2 42,-3 6,-5 -14,-47 -25,-52 -20,-9 -53,-7 -65,4zm52 23c7,7 4,8 -18,8 -22,0 -24,-1 -17,-8 4,-5 12,-9 17,-9 5,0 13,4 18,9z"/>
   <path class="fil1" d="M4411 6385c0,11 2,16 4,10 1,-6 1,-15 0,-21 -2,-5 -4,0 -4,11z"/>
   <path class="fil1" d="M1224 6058c16,2 43,2 59,0 16,-1 3,-2 -30,-2 -32,0 -46,1 -29,2z"/>
  </g>
 </g>
</svg>
