<?xml version="1.0" encoding="UTF-8"?>
<!DOCTYPE svg PUBLIC "-//W3C//DTD SVG 1.1//EN" "http://www.w3.org/Graphics/SVG/1.1/DTD/svg11.dtd">
<!-- Creator: CorelDRAW X7 -->
<svg xmlns="http://www.w3.org/2000/svg" xml:space="preserve" width="20mm" height="20mm" version="1.1" style="shape-rendering:geometricPrecision; text-rendering:geometricPrecision; image-rendering:optimizeQuality; fill-rule:evenodd; clip-rule:evenodd"
viewBox="0 0 414 414"
 xmlns:xlink="http://www.w3.org/1999/xlink">
 <defs>
  <style type="text/css">
   <![CDATA[
    .fil0 {fill:#FFB800}
   ]]>
  </style>
 </defs>
 <g id="Camada_x0020_1">
  <metadata id="CorelCorpID_0Corel-Layer"/>
  <path class="fil0" d="M207 0c-114,0 -207,95 -207,212 0,94 59,174 142,202 10,2 14,-5 14,-10 0,-6 0,-19 -1,-37 -57,13 -69,-28 -69,-28 -10,-25 -23,-31 -23,-31 -19,-13 1,-13 1,-13 21,1 32,22 32,22 18,32 48,23 60,18 2,-14 7,-24 13,-29 -46,-5 -94,-23 -94,-105 0,-23 8,-42 21,-57 -2,-5 -9,-27 2,-56 0,0 18,-6 57,22 17,-5 34,-7 52,-7 18,0 35,2 52,7 39,-28 57,-22 57,-22 11,29 4,51 2,56 13,15 21,34 21,57 0,82 -48,100 -94,105 7,7 14,19 14,39 0,29 -1,52 -1,59 0,5 4,12 15,10 82,-28 141,-108 141,-202 0,-117 -93,-212 -207,-212z"/>
 </g>
</svg>
