<?xml version="1.0" encoding="UTF-8"?>
<!DOCTYPE svg PUBLIC "-//W3C//DTD SVG 1.1//EN" "http://www.w3.org/Graphics/SVG/1.1/DTD/svg11.dtd">
<!-- Creator: CorelDRAW X7 -->
<svg xmlns="http://www.w3.org/2000/svg" xml:space="preserve" width="20mm" height="20mm" version="1.1" style="shape-rendering:geometricPrecision; text-rendering:geometricPrecision; image-rendering:optimizeQuality; fill-rule:evenodd; clip-rule:evenodd"
viewBox="0 0 544 544"
 xmlns:xlink="http://www.w3.org/1999/xlink">
 <defs>
  <style type="text/css">
   <![CDATA[
    .fil0 {fill:#FFB800}
   ]]>
  </style>
 </defs>
 <g id="Camada_x0020_1">
  <metadata id="CorelCorpID_0Corel-Layer"/>
  <g id="insta.eps">
   <path class="fil0" d="M374 0l-204 0c-94,0 -170,76 -170,170l0 204c0,94 76,170 170,170l204 0c94,0 170,-76 170,-170l0 -204c0,-94 -76,-170 -170,-170zm119 374c0,65 -54,119 -119,119l-204 0c-66,0 -119,-54 -119,-119l0 -204c0,-66 53,-119 119,-119l204 0c65,0 119,53 119,119l0 204z"/>
   <path class="fil0" d="M272 136c-75,0 -136,61 -136,136 0,75 61,136 136,136 75,0 136,-61 136,-136 0,-75 -61,-136 -136,-136zm0 221c-47,0 -85,-38 -85,-85 0,-47 38,-85 85,-85 47,0 85,38 85,85 0,47 -38,85 -85,85z"/>
   <path class="fil0" d="M436 126c0,10 -8,18 -18,18 -10,0 -18,-8 -18,-18 0,-10 8,-18 18,-18 10,0 18,8 18,18z"/>
  </g>
 </g>
</svg>
