<?xml version="1.0" encoding="UTF-8"?>
<!DOCTYPE svg PUBLIC "-//W3C//DTD SVG 1.1//EN" "http://www.w3.org/Graphics/SVG/1.1/DTD/svg11.dtd">
<!-- Creator: CorelDRAW X7 -->
<svg xmlns="http://www.w3.org/2000/svg" xml:space="preserve" width="20mm" height="20mm" version="1.1" style="shape-rendering:geometricPrecision; text-rendering:geometricPrecision; image-rendering:optimizeQuality; fill-rule:evenodd; clip-rule:evenodd"
viewBox="0 0 235 235"
 xmlns:xlink="http://www.w3.org/1999/xlink">
 <defs>
  <style type="text/css">
   <![CDATA[
    .fil0 {fill:#FFB800}
   ]]>
  </style>
 </defs>
 <g id="Camada_x0020_1">
  <metadata id="CorelCorpID_0Corel-Layer"/>
  <g id="zap.eps">
   <path class="fil0" d="M117 0l0 0c-64,0 -117,53 -117,117 0,26 8,50 22,69l-14 44 45 -15c18,13 40,20 64,20 65,0 118,-53 118,-118 0,-64 -53,-117 -118,-117zm69 166c-3,8 -14,14 -23,16 -7,2 -15,3 -42,-9 -34,-14 -56,-49 -58,-51 -2,-2 -14,-19 -14,-36 0,-16 9,-25 12,-28 3,-3 8,-4 12,-4 2,0 3,0 4,0 4,0 5,0 8,6 2,6 9,23 10,25 1,2 2,4 1,6 -2,3 -3,4 -4,6 -2,2 -4,3 -5,5 -2,2 -4,4 -2,8 2,3 9,14 19,23 13,12 24,16 28,17 3,1 6,1 8,-1 3,-3 6,-8 9,-12 3,-3 6,-4 9,-3 3,1 20,10 23,11 3,2 6,3 7,4 0,2 0,9 -2,17z"/>
  </g>
 </g>
</svg>
